<?xml version="1.0" encoding="utf-8"?>
<!-- Generator: Adobe Illustrator 21.0.0, SVG Export Plug-In . SVG Version: 6.00 Build 0)  -->
<svg version="1.1" id="Capa_1" xmlns="http://www.w3.org/2000/svg" xmlns:xlink="http://www.w3.org/1999/xlink" x="0px" y="0px"
	 viewBox="0 0 512 512" style="enable-background:new 0 0 512 512;" xml:space="preserve">
<style type="text/css">
	.st0{fill:#DBDBDB;}
</style>
<g>
	<path class="st0" d="M477.7,127.5c-22.9-39.2-53.9-70.3-93.2-93.2C345.3,11.4,302.5,0,256,0c-46.4,0-89.3,11.4-128.5,34.3
		c-39.2,22.9-70.3,53.9-93.2,93.2C11.4,166.7,0,209.6,0,256c0,46.4,11.4,89.3,34.3,128.5c22.9,39.2,53.9,70.3,93.2,93.2
		C166.7,500.6,209.6,512,256,512s89.3-11.4,128.5-34.3c39.2-22.9,70.3-53.9,93.2-93.2C500.6,345.3,512,302.4,512,256
		C512,209.6,500.6,166.7,477.7,127.5z M376.7,316.3c4.2,4.2,6.3,9.2,6.3,15c0,6-2.1,11.1-6.3,15.3l-30,30c-4.2,4.2-9.3,6.3-15.3,6.3
		c-5.8,0-10.8-2.1-15-6.3L256,316.3l-60.3,60.3c-4.2,4.2-9.2,6.3-15,6.3c-6,0-11.1-2.1-15.3-6.3l-30-30c-4.2-4.2-6.3-9.3-6.3-15.3
		c0-5.8,2.1-10.8,6.3-15l60.3-60.3l-60.3-60.3c-4.2-4.2-6.3-9.2-6.3-15c0-6,2.1-11.1,6.3-15.3l30-30c4.2-4.2,9.3-6.3,15.3-6.3
		c5.8,0,10.8,2.1,15,6.3l60.3,60.3l60.3-60.3c4.2-4.2,9.2-6.3,15-6.3c6,0,11.1,2.1,15.3,6.3l30,30c4.2,4.2,6.3,9.3,6.3,15.3
		c0,5.8-2.1,10.8-6.3,15L316.3,256L376.7,316.3z"/>
</g>
</svg>
