<svg xmlns="http://www.w3.org/2000/svg" viewBox="0 0 81.62 68.9"><defs><style>.cls-1{fill:#ade0ee;}.cls-2{font-size:7px;}.cls-2,.cls-9{fill:#231f20;font-family:AvertaCY-Semibold, Averta CY;font-weight:700;}.cls-3{letter-spacing:-0.02em;}.cls-4{letter-spacing:-0.03em;}.cls-5{letter-spacing:-0.03em;}.cls-6{letter-spacing:0em;}.cls-7{letter-spacing:-0.01em;}.cls-8{letter-spacing:-0.02em;}.cls-9{font-size:36px;}.cls-10{font-size:18px;}</style></defs><title>Ресурс 1</title><g id="Слой_2" data-name="Слой 2"><g id="Слой_1-2" data-name="Слой 1"><path class="cls-1" d="M80.19,18.55C77.62,9.82,71,1.64,62.07,0c-8.55,6-26.9,6.23-34,6.52-5.5.22-11.08,1.31-15.8,4.14C2.85,16.28-1.59,28.4.51,39.13S10.5,59,20.19,64c14.12,7.39,32.43,6.4,45.27-3S84.68,33.85,80.19,18.55Z"/></g><g id="Layer_2" data-name="Layer 2"><text class="cls-2" transform="translate(35.59 25.33)">с<tspan class="cls-3" x="3.72" y="0">де</tspan><tspan x="11.79" y="0">лай</tspan></text><text class="cls-2" transform="translate(27.01 48.91)">св<tspan class="cls-4" x="7.52" y="0">е</tspan><tspan class="cls-5" x="11.24" y="0">ж</tspan><tspan class="cls-6" x="16.5" y="0">е</tspan><tspan class="cls-7" x="20.43" y="0">г</tspan><tspan x="23.4" y="0">о</tspan><tspan x="0.37" y="8.4">йогу</tspan><tspan class="cls-8" x="15.51" y="8.4">рт</tspan><tspan x="22.95" y="8.4">а</tspan></text><text class="cls-9" transform="translate(20.09 40.2)">1<tspan class="cls-10" x="14.36" y="0">кг</tspan></text></g></g></svg>