<?xml version="1.0" encoding="utf-8"?>
<!-- Generator: Adobe Illustrator 22.1.0, SVG Export Plug-In . SVG Version: 6.00 Build 0)  -->
<svg version="1.1" id="Layer_1" xmlns="http://www.w3.org/2000/svg" xmlns:xlink="http://www.w3.org/1999/xlink" x="0px" y="0px"
	 viewBox="0 0 64 64" style="enable-background:new 0 0 64 64;" xml:space="preserve">
<style type="text/css">
	.st0{fill:#010101;}
	.st1{fill:none;stroke:#010101;stroke-width:2;stroke-miterlimit:10;}
	.st2{fill:#010101;stroke:#010101;stroke-miterlimit:10;}
	.st3{fill:none;stroke:#010101;stroke-width:1.4173;stroke-miterlimit:10;}
	.st4{fill:none;stroke:#000000;stroke-width:1.4173;stroke-miterlimit:10;}
	.st5{fill:none;stroke:#010101;stroke-width:1.9677;stroke-miterlimit:10;}
	.st6{fill:#BE3B95;}
	.st7{fill:#19499F;}
	.st8{fill:none;stroke:#010101;stroke-width:2.4399;stroke-miterlimit:10;}
	.st9{fill:none;stroke:#000000;stroke-width:2.4399;stroke-miterlimit:10;}
</style>
<g>
	<g>
		<path class="st0" d="M26.9,61.6c0-6.6,0-13.3,0-19.9c-2.2,0-4.4,0-6.6,0c0-2.8,0-5.6,0-8.4c2.2,0,4.4,0,6.6,0c0-0.2,0-0.4,0-0.6
			c0-1.8-0.1-3.6,0-5.3c0.1-3.1,1-5.9,3.3-8.2c1.7-1.7,3.9-2.6,6.3-2.6c2.2,0,4.5,0,6.7,0c0.1,0,0.3,0,0.5,0c0,2.8,0,5.6,0,8.4
			c-0.3,0-0.6,0-0.9,0c-1.2,0-2.4,0-3.6,0.1c-1.9,0.1-3.3,1.3-3.6,3.2c-0.1,0.5-0.2,1-0.2,1.4c0,1.1,0,2.3,0,3.5c2.8,0,5.5,0,8.4,0
			c-0.1,0.7-0.2,1.3-0.3,1.9c-0.4,2-0.8,4-1.2,6.1c-0.1,0.4-0.2,0.5-0.6,0.5c-1.8,0-3.7,0-5.5,0c-0.2,0-0.4,0-0.6,0
			c0,6.7,0,13.3,0,20C35.6,61.6,26.8,61.6,26.9,61.6z"/>
	</g>
	<path class="st0" d="M32,1C14.9,1,1,14.9,1,32s13.9,31,31,31c17.1,0,31-13.9,31-31S49.1,1,32,1z M32,60C16.5,60,4,47.5,4,32
		S16.5,4,32,4c15.5,0,28,12.5,28,28S47.5,60,32,60z"/>
</g>
</svg>
