<?xml version="1.0" encoding="utf-8"?>
<!-- Generator: Adobe Illustrator 22.1.0, SVG Export Plug-In . SVG Version: 6.00 Build 0)  -->
<svg version="1.1" id="Layer_1" xmlns="http://www.w3.org/2000/svg" xmlns:xlink="http://www.w3.org/1999/xlink" x="0px" y="0px"
	 viewBox="0 0 64 64" style="enable-background:new 0 0 64 64;" xml:space="preserve">
<style type="text/css">
	.st0{fill:#010101;}
	.st1{fill:none;stroke:#010101;stroke-width:2;stroke-miterlimit:10;}
	.st2{fill:#010101;stroke:#010101;stroke-miterlimit:10;}
	.st3{fill:none;stroke:#010101;stroke-width:1.4173;stroke-miterlimit:10;}
	.st4{fill:none;stroke:#000000;stroke-width:1.4173;stroke-miterlimit:10;}
	.st5{fill:none;stroke:#010101;stroke-width:1.9677;stroke-miterlimit:10;}
	.st6{fill:#BE3B95;}
	.st7{fill:#19499F;}
	.st8{fill:none;stroke:#010101;stroke-width:2.4399;stroke-miterlimit:10;}
	.st9{fill:none;stroke:#000000;stroke-width:2.4399;stroke-miterlimit:10;}
</style>
<g>
	<path class="st0" d="M42.1,15.9H22.3c-3.5,0-6.3,2.8-6.3,6.3v6.6V42c0,3.4,2.8,6.3,6.3,6.3h19.9c3.5,0,6.3-2.8,6.3-6.3V28.7v-6.6
		C48.4,18.7,45.6,15.9,42.1,15.9z M43.9,19.6l0.7,0v0.7v4.8l-5.5,0l0-5.5L43.9,19.6z M27.6,28.7c1-1.4,2.7-2.4,4.6-2.4
		c1.9,0,3.6,0.9,4.6,2.4c0.7,0.9,1.1,2.1,1.1,3.3c0,3.1-2.6,5.7-5.7,5.7c-3.1,0-5.7-2.6-5.7-5.7C26.5,30.8,26.9,29.7,27.6,28.7z
		 M45.2,42c0,1.7-1.4,3.1-3.1,3.1H22.3c-1.7,0-3.1-1.4-3.1-3.1V28.7H24c-0.4,1-0.7,2.1-0.7,3.3c0,4.9,4,8.9,8.9,8.9
		c4.9,0,8.9-4,8.9-8.9c0-1.2-0.2-2.3-0.7-3.3h4.8V42z"/>
	<path class="st0" d="M32,1C14.9,1,1,14.9,1,32s13.9,31,31,31c17.1,0,31-13.9,31-31S49.1,1,32,1z M32,60C16.5,60,4,47.5,4,32
		S16.5,4,32,4c15.5,0,28,12.5,28,28S47.5,60,32,60z"/>
</g>
</svg>
