<svg xmlns="http://www.w3.org/2000/svg" xmlns:xlink="http://www.w3.org/1999/xlink" viewBox="0 0 120.32 58.39"><defs><style>.cls-1{isolation:isolate;}.cls-2{fill:#fff;}.cls-3{fill:url(#radial-gradient);}.cls-4,.cls-5{mix-blend-mode:multiply;}.cls-4{fill:url(#radial-gradient-2);}.cls-6{fill:#554946;}</style><radialGradient id="radial-gradient" cx="60.16" cy="-289.42" r="57.32" gradientTransform="translate(0 163.93) scale(1 0.47)" gradientUnits="userSpaceOnUse"><stop offset="0" stop-color="#009836"/><stop offset="0.5" stop-color="#009836"/><stop offset="1" stop-color="#008055"/></radialGradient><radialGradient id="radial-gradient-2" cx="58.82" cy="28.15" r="58.58" gradientTransform="translate(-0.09 16.01) rotate(-0.41) scale(1 0.45)" gradientUnits="userSpaceOnUse"><stop offset="0" stop-color="#fff"/><stop offset="1" stop-color="#969599"/></radialGradient></defs><title>Ресурс 1</title><g class="cls-1"><g id="Слой_2" data-name="Слой 2"><g id="Layer_1" data-name="Layer 1"><path class="cls-2" d="M60.16,58.39C26.42,58.39,0,45.57,0,29.2S26.42,0,60.16,0s60.16,12.82,60.16,29.2S93.89,58.39,60.16,58.39Z"/><path class="cls-2" d="M60.16,57C27.22,57,1.42,44.77,1.42,29.2S27.22,1.42,60.16,1.42,118.9,13.62,118.9,29.2,93.1,57,60.16,57Z"/><ellipse class="cls-3" cx="60.16" cy="29.2" rx="57.32" ry="26.7"/><ellipse class="cls-4" cx="60.16" cy="29.2" rx="57.32" ry="26.7"/><ellipse class="cls-4" cx="60.16" cy="29.2" rx="57.32" ry="26.7"/><g class="cls-5"><path class="cls-6" d="M82.76,29.22c.08-.17.16-.3.21-.44a10.57,10.57,0,0,1,2.42-4.06,12.5,12.5,0,0,1,6.2-3.25,14.53,14.53,0,0,1,3-.31,11.09,11.09,0,0,0,3.56-.65,10.24,10.24,0,0,0,1.15-.57,5.26,5.26,0,0,1,.59-.26.63.63,0,0,0,.33-.25,1.22,1.22,0,0,1,.88-.59.65.65,0,0,1,.65,1c-.1.16-.19.33-.3.48a10.46,10.46,0,0,1-1.72,1.92A6.34,6.34,0,0,1,97,23.49c-.75.15-1.52.24-2.27.39s-1.34.27-2,.45a7.6,7.6,0,0,0-3.11,1.79c-.18.18-.39.34-.56.53a2.77,2.77,0,0,0-.42.55,2.78,2.78,0,0,1-.8,1c-.11.06-.09.12-.11.2a4.31,4.31,0,0,1-.23.82,9.09,9.09,0,0,0-.89,4.12,7.25,7.25,0,0,0,.84,3.34c.22.43.46.84.7,1.26a.86.86,0,0,1-.07,1,1.39,1.39,0,0,1-1.52.65,1.46,1.46,0,0,0-.29,0,3.39,3.39,0,0,1-.78,0,7.81,7.81,0,0,1-3.75-2A8,8,0,0,1,80.54,36a14.82,14.82,0,0,1-2.08-4.95,15,15,0,0,0-.68-2A6,6,0,0,0,76.36,27a.74.74,0,0,1-.18-.39.23.23,0,0,0-.14-.2.53.53,0,0,1-.35-.78,1.69,1.69,0,0,1,.13-.31.89.89,0,0,1,.94-.55c.37,0,.75,0,1.11.08a.74.74,0,0,1,.42.16c.24.22.1.13.51.17a3.66,3.66,0,0,1,2.53,1.48,7.28,7.28,0,0,1,1,1.83,4,4,0,0,0,.24.51,2.09,2.09,0,0,0,.18.25"/><path class="cls-6" d="M78.16,37.71l-.09-.1-1.49-1.46a4.63,4.63,0,0,1-1.17-2c-.23-.78-.38-1.58-.57-2.37a11.62,11.62,0,0,0-1.32-3.44c-.27-.45-.57-.89-.88-1.31A5.17,5.17,0,0,0,71,25.74,5.39,5.39,0,0,0,68,25a.86.86,0,0,1-.28,0,1.41,1.41,0,0,0-1,.06c-.26.11-.63,0-.91.09s-.46.19-.68.26-.4.19-.64.26a4.77,4.77,0,0,0-1.33.63,10.19,10.19,0,0,0-1.54,1.47,4.67,4.67,0,0,0-.61.91,8.06,8.06,0,0,0-.82,2.89,7.54,7.54,0,0,0,4.58,7.69,7.8,7.8,0,0,0,5.85-.23,6.73,6.73,0,0,0,2-1.24l.25.21a5.61,5.61,0,0,0,2,1.17,10,10,0,0,0,1.63.32,4.29,4.29,0,0,0,1.24-.07.93.93,0,0,0,.47-1.62m-7.62-4.63a1.65,1.65,0,0,0-.33.46A2.93,2.93,0,0,1,68.62,35c-.22.07-.44.09-.67.14-.07,0-.15.1-.23.12h-.09a1.19,1.19,0,0,0-.2-.08,2.52,2.52,0,0,1-1.22-.25,3.25,3.25,0,0,1-1.31-1.19,2.64,2.64,0,0,1-.34-2.05,2.88,2.88,0,0,1,.24-.77,2.7,2.7,0,0,1,2.67-1.47,2.65,2.65,0,0,1,2.13.89,2.6,2.6,0,0,1,.7,1.4,3.41,3.41,0,0,0,.3,1.08.19.19,0,0,1-.06.26"/><path class="cls-6" d="M107.56,37.83l-.09-.1L106,36.27a4.71,4.71,0,0,1-1.16-2c-.23-.78-.39-1.57-.58-2.36a11.83,11.83,0,0,0-1.31-3.45c-.28-.45-.57-.89-.89-1.31a5.16,5.16,0,0,0-1.68-1.32,5.42,5.42,0,0,0-3-.79.68.68,0,0,1-.28,0,1.38,1.38,0,0,0-1,.06c-.26.11-.63,0-.91.1s-.46.19-.69.26-.39.18-.64.26a4.31,4.31,0,0,0-1.32.62A9.33,9.33,0,0,0,91,27.8a4.26,4.26,0,0,0-.61.91,8.14,8.14,0,0,0-.83,2.89,7.05,7.05,0,0,0,2.19,6.1,7.14,7.14,0,0,0,2.4,1.59,7.73,7.73,0,0,0,5.84-.23,6.6,6.6,0,0,0,2-1.24l.25.21a5.7,5.7,0,0,0,2,1.17,10.33,10.33,0,0,0,1.64.32,4.23,4.23,0,0,0,1.23-.07.92.92,0,0,0,.47-1.62m-7.62-4.62a1.64,1.64,0,0,0-.33.45A2.9,2.9,0,0,1,98,35.11l-.66.18a1.55,1.55,0,0,0-.23.08h0a1.46,1.46,0,0,0-.19-.07,2.74,2.74,0,0,1-1.28-.26,3.21,3.21,0,0,1-1.32-1.19A2.64,2.64,0,0,1,94,31.81,2.54,2.54,0,0,1,94.2,31a2.72,2.72,0,0,1,2.67-1.47,2.63,2.63,0,0,1,2.13.89,2.6,2.6,0,0,1,.7,1.4A3.76,3.76,0,0,0,100,33a.18.18,0,0,1-.06.26"/><path class="cls-6" d="M60.5,26.1c-.08-.52-.15-1-.23-1.56a.28.28,0,0,0-.28-.26c-.17,0-1.06.18-1.87.33a17.72,17.72,0,0,0-2.76.88,24.3,24.3,0,0,0-3.71,2.36s0,0-.06,0c-.64-.67-1.27-1.35-2-2-.55-.47-.88-.77-1.32-1.16a.37.37,0,0,0-.47,0,3.72,3.72,0,0,0-1.13.92c-.15.2-.17.29,0,.5s.23.29.33.46a16.63,16.63,0,0,1,1.21,2.29,12.58,12.58,0,0,1,.63,1.88c0,.15,0,.3.22.38a.1.1,0,0,1,.06.14c0,.12-.17.28-.17.4a29.76,29.76,0,0,1-.16,3.54c-.1.87-.22,1.74-.32,2.61,0,.38,0,.76-.06,1.14a.21.21,0,0,0,.2.25c.8.14,1.6.32,2.41.4a14.56,14.56,0,0,0,2.09,0,1.63,1.63,0,0,0,.37-.08,2,2,0,0,1,.61-.16,2.81,2.81,0,0,0,.82,0,1.22,1.22,0,0,0,1-.57,2.85,2.85,0,0,0,.17-.46c.09-.29,0-.42-.28-.51s-.51-.12-.77-.16a.41.41,0,0,1-.37-.49,1.16,1.16,0,0,0-.17-.87,4.73,4.73,0,0,1-.32-.46l-.2-.31h0a6.52,6.52,0,0,1,1.53-5.7,12.68,12.68,0,0,1,3-2.42l.12-.06.28-.17c.58-.32,1-.53,1.32-.66l.14-.06a.31.31,0,0,0,.19-.35"/><path class="cls-6" d="M45.54,30.27a2.08,2.08,0,0,0-.11-.89,1.09,1.09,0,0,1,0-.26,16.89,16.89,0,0,0-1.1-3.67c-.21-.49-.94-.57-1.43-.39a10,10,0,0,0-1.39.59A1.55,1.55,0,0,0,40.52,27a11,11,0,0,0,0,1.52c.08.81.26,1.62.29,2.36a7.44,7.44,0,0,1-.09,1.3,3.11,3.11,0,0,1-2.2,2.68,3.16,3.16,0,0,1-2.71-.48c-.06,0-.11-.1-.17-.15l-.58-.62a1.49,1.49,0,0,1-.24-.32,6.62,6.62,0,0,1-.67-2.13,8.53,8.53,0,0,1,.39-3.47,7.43,7.43,0,0,0,.27-1.13.92.92,0,0,0-.66-1.1c-.32-.11-.65-.21-1-.3s-.9-.24-1.35-.34a.93.93,0,0,0-1.09.47,2.6,2.6,0,0,0-.28.45,2.23,2.23,0,0,0-.15.31h0a11,11,0,0,0-.58,1.79,5.5,5.5,0,0,0-.15.81,11.67,11.67,0,0,0,.08,4.43,8.78,8.78,0,0,0,3.6,5.35l.2.15a1.11,1.11,0,0,0,.63.23.28.28,0,0,1,.12,0,6.33,6.33,0,0,0,1.59.53,11,11,0,0,0,2.62.22,1,1,0,0,0,.65-.22.7.7,0,0,1,.58-.17,2.32,2.32,0,0,0,1.47-.39L42.54,38a4.64,4.64,0,0,0,1.18-1.07,2.33,2.33,0,0,1,.52-.52,1,1,0,0,0,.4-.6,2.28,2.28,0,0,1,.21-.51,1,1,0,0,0,.16-.72.37.37,0,0,1,0-.18c.07-.23.13-.45.21-.67a7.93,7.93,0,0,0,.32-2.21c0-.4,0-.81,0-1.21"/><path class="cls-6" d="M26.55,20.17a2,2,0,0,1-.32-1.32c.08-.78,1.4-1.77,1.37-3.15a2.51,2.51,0,0,0-3.26-2.18A3,3,0,0,0,22,17.64c.86,2,4.58,2.53,4.58,2.53"/><path class="cls-6" d="M26.55,21.49a6.34,6.34,0,0,1-1.9-.18c-1.09-.28-2.14-1-2.65-.87s-1.29.73-1.27,2.78c0,2.58,1.43,7.11,1.37,7.89a3.25,3.25,0,0,1-1.75,3.24,2.74,2.74,0,0,1-3.28-1.06,6.15,6.15,0,0,0-1-1.14,2.62,2.62,0,0,0-3.21.35,2.57,2.57,0,0,0-.39,3.27c.53.92,2.17,4,7.07,3.9a7.73,7.73,0,0,0,7.65-5.59c1-4-1.24-7.6-1.16-9.87a6.61,6.61,0,0,1,.51-2.72"/></g><path class="cls-2" d="M83.12,28c.08-.17.15-.3.2-.44a10.7,10.7,0,0,1,2.42-4.06,12.5,12.5,0,0,1,6.2-3.25A14.53,14.53,0,0,1,95,20a11.15,11.15,0,0,0,3.57-.65,11.16,11.16,0,0,0,1.15-.57,6,6,0,0,1,.58-.26.59.59,0,0,0,.33-.25,1.24,1.24,0,0,1,.88-.59.66.66,0,0,1,.66,1c-.1.16-.19.33-.3.48A10.19,10.19,0,0,1,100.1,21a6.23,6.23,0,0,1-2.77,1.28c-.75.16-1.51.24-2.27.39s-1.34.27-2,.45A7.53,7.53,0,0,0,90,24.92c-.19.18-.39.34-.57.53A3.8,3.8,0,0,0,89,26a2.78,2.78,0,0,1-.8,1c-.11.06-.09.13-.11.2a4.61,4.61,0,0,1-.22.83,8.77,8.77,0,0,0-.89,4.11,7.25,7.25,0,0,0,.84,3.34c.21.43.46.84.69,1.26a.86.86,0,0,1-.07,1,1.38,1.38,0,0,1-1.51.65,1.56,1.56,0,0,0-.3,0,3.39,3.39,0,0,1-.78,0,7.85,7.85,0,0,1-3.75-2,8.89,8.89,0,0,1-1.17-1.52,14.73,14.73,0,0,1-2.08-5,16.48,16.48,0,0,0-.67-2,6.2,6.2,0,0,0-1.42-2.09.93.93,0,0,1-.19-.4c0-.1,0-.15-.13-.19A.55.55,0,0,1,76,24.4c0-.1.09-.21.14-.31a.86.86,0,0,1,.94-.54c.37,0,.74,0,1.11.07a.8.8,0,0,1,.42.16c.24.22.09.13.5.17a3.64,3.64,0,0,1,2.53,1.48,7.17,7.17,0,0,1,1,1.84c.07.17.16.34.24.51a2.12,2.12,0,0,0,.19.24"/><path class="cls-2" d="M78.51,36.51l-.09-.09L76.93,35a4.71,4.71,0,0,1-1.16-2c-.23-.77-.39-1.57-.58-2.36a11.83,11.83,0,0,0-1.31-3.45c-.28-.45-.57-.89-.89-1.31a5.29,5.29,0,0,0-1.68-1.32,5.42,5.42,0,0,0-3-.79.68.68,0,0,1-.28,0,1.49,1.49,0,0,0-1,.06c-.26.12-.63,0-.91.1s-.46.19-.69.26-.39.18-.64.26a4.31,4.31,0,0,0-1.32.62A9.33,9.33,0,0,0,62,26.48a4.26,4.26,0,0,0-.61.91,7.94,7.94,0,0,0-.83,2.89,7,7,0,0,0,2.19,6.1A7.14,7.14,0,0,0,65.1,38a7.73,7.73,0,0,0,5.84-.23,6.6,6.6,0,0,0,2-1.24l.25.21a5.7,5.7,0,0,0,2,1.17,9.32,9.32,0,0,0,1.64.32A4.25,4.25,0,0,0,78,38.13a.92.92,0,0,0,.47-1.62m-7.62-4.62a1.64,1.64,0,0,0-.33.45A2.9,2.9,0,0,1,69,33.79c-.22.07-.44.09-.66.14s-.16.1-.23.12H68a1.8,1.8,0,0,0-.21-.08,2.48,2.48,0,0,1-1.21-.25,3.15,3.15,0,0,1-1.32-1.19,2.68,2.68,0,0,1-.34-2.05,2.88,2.88,0,0,1,.24-.77,2.72,2.72,0,0,1,2.67-1.47,2.63,2.63,0,0,1,2.13.89,2.6,2.6,0,0,1,.7,1.4,3.47,3.47,0,0,0,.3,1.09.19.19,0,0,1-.06.26"/><path class="cls-2" d="M107.92,36.63l-.1-.09-1.49-1.47a4.65,4.65,0,0,1-1.16-2c-.23-.77-.39-1.57-.57-2.36a11.57,11.57,0,0,0-1.32-3.45,14.37,14.37,0,0,0-.89-1.31,5.29,5.29,0,0,0-1.68-1.32,5.42,5.42,0,0,0-3-.79.83.83,0,0,1-.27,0,1.46,1.46,0,0,0-1,.05c-.26.12-.63,0-.91.1s-.46.19-.68.26-.4.18-.64.26a4.48,4.48,0,0,0-1.33.62,9.76,9.76,0,0,0-1.54,1.47,4.67,4.67,0,0,0-.61.91,8.35,8.35,0,0,0-.83,2.89,7.52,7.52,0,0,0,4.59,7.69,7.68,7.68,0,0,0,5.84-.23,6.6,6.6,0,0,0,2-1.24l.26.21a5.61,5.61,0,0,0,2,1.17,9,9,0,0,0,1.63.32,4.29,4.29,0,0,0,1.24-.07.93.93,0,0,0,.47-1.62M100.29,32a1.44,1.44,0,0,0-.32.45,3,3,0,0,1-1.59,1.46l-.67.17c-.08,0-.15.07-.23.08h0a1.07,1.07,0,0,0-.19-.07A2.74,2.74,0,0,1,96,33.85a3.18,3.18,0,0,1-1.31-1.19,2.64,2.64,0,0,1-.34-2,2.88,2.88,0,0,1,.24-.77,2.69,2.69,0,0,1,2.66-1.47,2.66,2.66,0,0,1,2.14.89,2.78,2.78,0,0,1,.7,1.4,3.47,3.47,0,0,0,.3,1.09.19.19,0,0,1-.07.26"/><path class="cls-2" d="M60.85,24.9c-.07-.52-.15-1-.23-1.56a.26.26,0,0,0-.28-.25c-.17,0-1.05.17-1.87.32a18.07,18.07,0,0,0-2.76.88A24.07,24.07,0,0,0,52,26.65s0,0-.06,0c-.65-.67-1.28-1.35-2-2-.55-.47-.87-.77-1.31-1.16a.39.39,0,0,0-.47,0,3.76,3.76,0,0,0-1.14.92c-.15.2-.17.29,0,.5a4.84,4.84,0,0,1,.33.46,15.17,15.17,0,0,1,1.21,2.29,12.33,12.33,0,0,1,.63,1.89.46.46,0,0,0,.22.37.11.11,0,0,1,.07.14c0,.13-.17.28-.17.41A32.27,32.27,0,0,1,49.14,34c-.09.86-.22,1.73-.32,2.6,0,.38,0,.76-.06,1.14A.21.21,0,0,0,49,38c.81.14,1.6.32,2.41.41a16.2,16.2,0,0,0,2.09,0,1.23,1.23,0,0,0,.37-.08,2,2,0,0,1,.61-.16,2.5,2.5,0,0,0,.82,0,1.21,1.21,0,0,0,1-.57,4.28,4.28,0,0,0,.17-.46c.09-.29,0-.42-.28-.5s-.51-.12-.77-.17A.41.41,0,0,1,55,36a1.08,1.08,0,0,0-.17-.86c-.1-.16-.22-.31-.32-.47s-.14-.21-.19-.31h0a6.51,6.51,0,0,1,1.52-5.69,12.38,12.38,0,0,1,2.95-2.42l.12-.07.29-.17c.58-.32,1-.53,1.32-.66l.13-.06a.3.3,0,0,0,.19-.35"/><path class="cls-2" d="M45.89,29.07a1.94,1.94,0,0,0-.11-.89,1.09,1.09,0,0,1,0-.26,17,17,0,0,0-1.09-3.67c-.21-.48-.94-.57-1.44-.39a11.36,11.36,0,0,0-1.39.59,1.58,1.58,0,0,0-1,1.37,12.79,12.79,0,0,0,.06,1.52c.08.82.26,1.62.28,2.36A6.74,6.74,0,0,1,41.12,31a3.1,3.1,0,0,1-2.19,2.67,3.15,3.15,0,0,1-2.71-.48.83.83,0,0,1-.17-.15l-.58-.62a1.22,1.22,0,0,1-.24-.32A6.56,6.56,0,0,1,34.55,30a8.64,8.64,0,0,1,.39-3.46,7.89,7.89,0,0,0,.28-1.14.93.93,0,0,0-.67-1.1c-.32-.11-.64-.21-1-.3l-1.36-.34a.93.93,0,0,0-1.09.47,4.12,4.12,0,0,0-.27.45,2.25,2.25,0,0,0-.16.31h0a13.22,13.22,0,0,0-.58,1.78,7.23,7.23,0,0,0-.15.81,11.69,11.69,0,0,0,.09,4.43,8.79,8.79,0,0,0,3.59,5.35l.2.15a1.11,1.11,0,0,0,.63.23.42.42,0,0,1,.12,0,6.07,6.07,0,0,0,1.59.53,11,11,0,0,0,2.63.22,1,1,0,0,0,.64-.22.78.78,0,0,1,.59-.17,2.23,2.23,0,0,0,1.46-.39c.47-.28.92-.59,1.38-.88a4.5,4.5,0,0,0,1.19-1.07,2.13,2.13,0,0,1,.52-.52,1.09,1.09,0,0,0,.4-.6,2.25,2.25,0,0,1,.2-.51,1.06,1.06,0,0,0,.17-.72.39.39,0,0,1,0-.18c.06-.22.13-.45.2-.67a7.82,7.82,0,0,0,.32-2.21c0-.4,0-.81,0-1.21"/><path class="cls-2" d="M26.9,19a2,2,0,0,1-.32-1.32c.08-.79,1.4-1.78,1.37-3.16a2.51,2.51,0,0,0-3.26-2.18,3,3,0,0,0-2.37,4.12c.87,2,4.58,2.54,4.58,2.54"/><path class="cls-2" d="M26.9,20.3A6.13,6.13,0,0,1,25,20.11c-1.1-.27-2.15-1-2.66-.87S21.06,20,21.08,22c0,2.59,1.43,7.11,1.38,7.89a3.28,3.28,0,0,1-1.75,3.24,2.76,2.76,0,0,1-3.29-1,5.83,5.83,0,0,0-1-1.15,2.63,2.63,0,0,0-3.22.35,2.58,2.58,0,0,0-.39,3.27c.54.92,2.17,4,7.08,3.9a7.72,7.72,0,0,0,7.64-5.59c1-4-1.24-7.6-1.16-9.86a6.54,6.54,0,0,1,.51-2.72"/></g></g></g></svg>