<svg id="Capa_1" data-name="Capa 1" xmlns="http://www.w3.org/2000/svg" viewBox="0 0 512 512"><defs><style>.cls-1{fill:#161616;}</style></defs><title>close_black</title><path class="cls-1" d="M477.7,127.5a254.78,254.78,0,0,0-93.2-93.2Q325.7-.05,256,0T127.5,34.3a254.78,254.78,0,0,0-93.2,93.2Q-.05,186.3,0,256T34.3,384.5a254.78,254.78,0,0,0,93.2,93.2Q186.3,512.05,256,512t128.5-34.3a254.78,254.78,0,0,0,93.2-93.2Q512.05,325.7,512,256T477.7,127.5Zm-101,188.8a20.48,20.48,0,0,1,6.3,15,20.83,20.83,0,0,1-6.3,15.3l-30,30a20.83,20.83,0,0,1-15.3,6.3,20.48,20.48,0,0,1-15-6.3L256,316.3l-60.3,60.3a20.48,20.48,0,0,1-15,6.3,20.83,20.83,0,0,1-15.3-6.3l-30-30a20.83,20.83,0,0,1-6.3-15.3,20.48,20.48,0,0,1,6.3-15L195.7,256l-60.3-60.3a20.48,20.48,0,0,1-6.3-15,20.83,20.83,0,0,1,6.3-15.3l30-30a20.83,20.83,0,0,1,15.3-6.3,20.48,20.48,0,0,1,15,6.3L256,195.7l60.3-60.3a20.48,20.48,0,0,1,15-6.3,20.83,20.83,0,0,1,15.3,6.3l30,30a20.83,20.83,0,0,1,6.3,15.3,20.48,20.48,0,0,1-6.3,15L316.3,256Z"/></svg>