<?xml version="1.0" encoding="utf-8"?>
<!-- Generator: Adobe Illustrator 22.1.0, SVG Export Plug-In . SVG Version: 6.00 Build 0)  -->
<svg version="1.1" id="Layer_1" xmlns="http://www.w3.org/2000/svg" xmlns:xlink="http://www.w3.org/1999/xlink" x="0px" y="0px"
	 viewBox="0 0 64 64" style="enable-background:new 0 0 64 64;" xml:space="preserve">
<style type="text/css">
	.st0{fill:#010101;}
	.st1{fill:none;stroke:#010101;stroke-width:2;stroke-miterlimit:10;}
	.st2{fill:#010101;stroke:#010101;stroke-miterlimit:10;}
	.st3{fill:none;stroke:#010101;stroke-width:1.4173;stroke-miterlimit:10;}
	.st4{fill:none;stroke:#000000;stroke-width:1.4173;stroke-miterlimit:10;}
	.st5{fill:none;stroke:#010101;stroke-width:1.9677;stroke-miterlimit:10;}
	.st6{fill:#BE3B95;}
	.st7{fill:#19499F;}
	.st8{fill:none;stroke:#010101;stroke-width:2.4399;stroke-miterlimit:10;}
	.st9{fill:none;stroke:#000000;stroke-width:2.4399;stroke-miterlimit:10;}
</style>
<g>
	<path class="st0" d="M32,1C14.9,1,1,14.9,1,32s13.9,31,31,31c17.1,0,31-13.9,31-31S49.1,1,32,1z M32,60C16.5,60,4,47.5,4,32
		S16.5,4,32,4c15.5,0,28,12.5,28,28S47.5,60,32,60z"/>
	<path class="st0" d="M49.8,21c-1.3,0.6-2.7,1-4.2,1.1c1.5-0.9,2.7-2.3,3.2-4c-1.4,0.8-3,1.4-4.6,1.8c-1.3-1.4-3.2-2.3-5.3-2.3
		c-4,0-7.3,3.3-7.3,7.3c0,0.6,0.1,1.1,0.2,1.7c-6.1-0.3-11.4-3.2-15-7.6c-0.6,1.1-1,2.3-1,3.7c0,2.5,1.3,4.8,3.2,6.1
		c-1.2,0-2.3-0.4-3.3-0.9v0.1c0,3.5,2.5,6.5,5.9,7.1c-0.6,0.2-1.3,0.3-1.9,0.3c-0.5,0-0.9,0-1.4-0.1c0.9,2.9,3.6,5,6.8,5.1
		c-2.5,2-5.6,3.1-9.1,3.1c-0.6,0-1.2,0-1.7-0.1c3.2,2.1,7.1,3.3,11.2,3.3c13.4,0,20.7-11.1,20.7-20.7c0-0.3,0-0.6,0-0.9
		C47.6,23.7,48.8,22.5,49.8,21"/>
</g>
</svg>
