<?xml version="1.0" encoding="utf-8"?>
<!-- Generator: Adobe Illustrator 22.1.0, SVG Export Plug-In . SVG Version: 6.00 Build 0)  -->
<svg version="1.1" id="Layer_1" xmlns="http://www.w3.org/2000/svg" xmlns:xlink="http://www.w3.org/1999/xlink" x="0px" y="0px"
	 viewBox="0 0 64 64" style="enable-background:new 0 0 64 64;" xml:space="preserve">
<style type="text/css">
	.st0{fill:#010101;}
	.st1{fill:none;stroke:#010101;stroke-width:2;stroke-miterlimit:10;}
	.st2{fill:#010101;stroke:#010101;stroke-miterlimit:10;}
	.st3{fill:none;stroke:#010101;stroke-width:1.4173;stroke-miterlimit:10;}
	.st4{fill:none;stroke:#000000;stroke-width:1.4173;stroke-miterlimit:10;}
	.st5{fill:none;stroke:#010101;stroke-width:1.9677;stroke-miterlimit:10;}
	.st6{fill:#BE3B95;}
	.st7{fill:#19499F;}
	.st8{fill:none;stroke:#010101;stroke-width:2.4399;stroke-miterlimit:10;}
	.st9{fill:none;stroke:#000000;stroke-width:2.4399;stroke-miterlimit:10;}
</style>
<g>
	<path class="st0" d="M39.2,32L27,39.2V24.9L39.2,32z M50.6,38.6V25.4c0,0,0-6.4-6.4-6.4H19.8c0,0-6.4,0-6.4,6.4v13.3
		c0,0,0,6.4,6.4,6.4h24.4C44.2,45.1,50.6,45.1,50.6,38.6"/>
	<path class="st0" d="M32,1C14.9,1,1,14.9,1,32s13.9,31,31,31c17.1,0,31-13.9,31-31S49.1,1,32,1z M32,60C16.5,60,4,47.5,4,32
		S16.5,4,32,4c15.5,0,28,12.5,28,28S47.5,60,32,60z"/>
</g>
</svg>
