<?xml version="1.0" encoding="utf-8"?>
<!-- Generator: Adobe Illustrator 22.1.0, SVG Export Plug-In . SVG Version: 6.00 Build 0)  -->
<svg version="1.1" id="Layer_1" xmlns="http://www.w3.org/2000/svg" xmlns:xlink="http://www.w3.org/1999/xlink" x="0px" y="0px"
	 viewBox="0 0 64 64" style="enable-background:new 0 0 64 64;" xml:space="preserve">
<style type="text/css">
	.st0{fill:#010101;}
	.st1{fill:none;stroke:#010101;stroke-width:2;stroke-miterlimit:10;}
	.st2{fill:#010101;stroke:#010101;stroke-miterlimit:10;}
	.st3{fill:none;stroke:#010101;stroke-width:1.4173;stroke-miterlimit:10;}
	.st4{fill:none;stroke:#000000;stroke-width:1.4173;stroke-miterlimit:10;}
	.st5{fill:none;stroke:#010101;stroke-width:1.9677;stroke-miterlimit:10;}
	.st6{fill:#BE3B95;}
	.st7{fill:#19499F;}
	.st8{fill:none;stroke:#010101;stroke-width:2.4399;stroke-miterlimit:10;}
	.st9{fill:none;stroke:#000000;stroke-width:2.4399;stroke-miterlimit:10;}
</style>
<g>
	<g>
		<g>
			<path class="st0" d="M28,45.6c1,2,4,3.7,7.1,3.7c9.4,0,15.8-8.8,15.8-20.5c0-8.9-7.3-17.1-18.5-17.1c-13.9,0-20.9,10.2-20.9,18.7
				c0,5.1,1.9,9.7,6,11.4c0.7,0.3,1.3,0,1.5-0.7c0.1-0.5,0.5-1.9,0.6-2.4c0.2-0.8,0.1-1-0.4-1.7c-1.2-1.4-1.9-3.3-1.9-5.9
				c0-7.6,5.5-14.3,14.4-14.3c7.8,0,12.2,4.9,12.2,11.5c0,8.6-3.7,15.9-9.3,15.9c-3.1,0-5.3-2.6-4.6-5.8c0.9-3.8,2.6-7.9,2.6-10.6
				c0-2.4-1.3-4.5-3.9-4.5c-3.1,0-5.6,3.3-5.6,7.7c0,2.8,0.9,4.7,0.9,4.7S20.7,49.6,20.1,52c-0.5,2.3-0.6,4.8-0.5,6.9
				c1.1,0.5,2.3,0.9,3.4,1.3c1.1-1.8,2.3-4.1,2.9-6.4C26.3,52.5,28,45.6,28,45.6z"/>
			<path class="st0" d="M23.4,61.2L22.8,61c-1.2-0.4-2.4-0.8-3.6-1.3l-0.5-0.2l0-0.5c-0.1-2.7,0.1-5.1,0.5-7.1
				c0.5-2.2,3.2-14,3.7-16c-0.3-0.7-0.9-2.4-0.9-4.8c0-4.8,2.9-8.6,6.5-8.6c2.9,0,4.8,2.2,4.8,5.4c0,1.9-0.7,4.2-1.5,6.7
				c-0.4,1.4-0.8,2.8-1.1,4.1c-0.3,1.2,0,2.4,0.7,3.3c0.7,0.9,1.9,1.4,3.1,1.4c4.8,0,8.4-6.5,8.4-15c0-6.5-4.3-10.6-11.3-10.6
				c-6.6,0-13.5,4.7-13.5,13.5c0,2.2,0.5,3.9,1.7,5.3c0.7,0.9,0.9,1.4,0.6,2.4L20.2,40c-0.1,0.5-0.2,1-0.3,1.2
				c-0.2,0.6-0.5,1.1-1,1.3c-0.5,0.2-1.1,0.2-1.6,0c-4.1-1.7-6.5-6.3-6.5-12.2c0-4.7,2-9.5,5.5-13.1c2.8-2.9,7.9-6.4,16.3-6.4
				c12.1,0,19.4,9.2,19.4,18c0,12.4-7,21.4-16.6,21.4c-2.5,0-5.1-1.1-6.7-2.6c-0.5,2.1-1.4,5.6-1.6,6.5c-0.5,2-1.6,4.2-3,6.6
				L23.4,61.2z M20.4,58.3c0.7,0.3,1.5,0.6,2.2,0.8c1.2-2,2-3.9,2.5-5.6c0.4-1.3,2-8.1,2.1-8.2l0.6-2.3l1.1,2.1
				c0.8,1.6,3.4,3.3,6.4,3.3c8.8,0,14.9-8.1,14.9-19.6c0-8-6.6-16.3-17.6-16.3c-8.3,0-20,5.5-20,17.8c0,5.2,2,9.2,5.4,10.6
				c0.1,0,0.2,0,0.2,0c0,0,0.1-0.1,0.1-0.2c0.1-0.3,0.2-0.8,0.3-1.2l0.3-1.2c0.1-0.5,0.1-0.5-0.2-0.9c-1.4-1.7-2.1-3.8-2.1-6.4
				c0-8.7,6.6-15.2,15.2-15.2c7.9,0,13,4.8,13,12.3c0,9.6-4.4,16.8-10.1,16.8c-1.8,0-3.4-0.8-4.5-2.1c-1-1.3-1.4-3-1-4.7
				c0.3-1.4,0.8-2.8,1.2-4.2c0.7-2.4,1.4-4.6,1.4-6.2c0-0.8-0.2-3.6-3.1-3.6c-2.7,0-4.8,3-4.8,6.9c0,2.6,0.8,4.3,0.8,4.4l0.1,0.3
				l-0.1,0.3c0,0-3.2,13.9-3.8,16.3C20.6,53.9,20.4,56,20.4,58.3z"/>
		</g>
	</g>
	<path class="st0" d="M32,1C14.9,1,1,14.9,1,32s13.9,31,31,31c17.1,0,31-13.9,31-31S49.1,1,32,1z M32,60C16.5,60,4,47.5,4,32
		S16.5,4,32,4c15.5,0,28,12.5,28,28S47.5,60,32,60z"/>
</g>
</svg>
