<svg xmlns="http://www.w3.org/2000/svg" viewBox="0 0 67.41 51.15"><defs><style>.cls-1{isolation:isolate;}.cls-2{fill:#fff;}.cls-3{fill:#0d0506;}.cls-4{fill:#d4d3d1;}.cls-5{fill:none;stroke:#0d0506;stroke-miterlimit:10;stroke-width:0.5px;}.cls-6{opacity:0.3;mix-blend-mode:multiply;}</style></defs><title>Ресурс 3</title><g class="cls-1"><g id="Слой_2" data-name="Слой 2"><g id="Layer_1" data-name="Layer 1"><path class="cls-2" d="M55.14,48.63a.86.86,0,0,1-.65.8,43.24,43.24,0,0,1-8.42.64,43.24,43.24,0,0,1-8.42-.64.86.86,0,0,1-.65-.8V12.21a.64.64,0,0,1,.66-.64L54.48,12a.69.69,0,0,1,.66.68Z"/><path class="cls-3" d="M46.07,50.2a44.83,44.83,0,0,1-8.45-.64,1,1,0,0,1-.75-.93V12.21a.76.76,0,0,1,.24-.55.73.73,0,0,1,.55-.22l16.82.47a.83.83,0,0,1,.79.81V48.63a1,1,0,0,1-.75.93A44.83,44.83,0,0,1,46.07,50.2ZM37.64,11.7a.5.5,0,0,0-.35.14.52.52,0,0,0-.16.37V48.63a.73.73,0,0,0,.54.67,43.24,43.24,0,0,0,8.4.64,43.24,43.24,0,0,0,8.4-.64.73.73,0,0,0,.54-.67V12.72a.56.56,0,0,0-.53-.55L37.66,11.7Z"/><path class="cls-4" d="M57.26,12.55a.71.71,0,0,1-.66.69s-7.1.37-10.6.37-10.46-.37-10.46-.37a.71.71,0,0,1-.66-.69v-3a.72.72,0,0,1,.66-.7s3-.21,10.53-.21,10.53.21,10.53.21a.72.72,0,0,1,.66.7Z"/><path class="cls-3" d="M46,13.73c-3.47,0-10.4-.35-10.47-.36a.83.83,0,0,1-.78-.82v-3a.85.85,0,0,1,.78-.83s3.08-.21,10.54-.21,10.51.21,10.54.21a.85.85,0,0,1,.78.83v3a.83.83,0,0,1-.78.82C56.54,13.37,49.47,13.73,46,13.73Zm.07-4.93C38.62,8.8,35.58,9,35.55,9a.58.58,0,0,0-.54.57v3a.56.56,0,0,0,.53.56c.07,0,7,.37,10.46.37s10.52-.36,10.6-.37a.56.56,0,0,0,.53-.56v-3A.58.58,0,0,0,56.59,9S53.52,8.8,46.07,8.8Z"/><path class="cls-5" d="M33.83,30.88a18.82,18.82,0,0,0,12.24,4,18.84,18.84,0,0,0,12.24-4"/><polygon class="cls-3" points="33.49 32.54 30.86 27.59 35.62 30.56 33.49 32.54"/><polygon class="cls-3" points="58.65 32.54 61.28 27.59 56.52 30.56 58.65 32.54"/><g class="cls-6"><path class="cls-2" d="M46.32,50.61a.86.86,0,0,1-1,.38,43.08,43.08,0,0,1-7.67-3.55,43.81,43.81,0,0,1-7.05-4.65.87.87,0,0,1-.17-1L48.22,10a.64.64,0,0,1,.89-.23l14.46,8.6a.68.68,0,0,1,.24.91Z"/><path class="cls-3" d="M37.64,47.56a43.64,43.64,0,0,1-7.07-4.68,1,1,0,0,1-.2-1.17L48.11,9.9a.79.79,0,0,1,.47-.37.76.76,0,0,1,.59.09l14.46,8.6a.82.82,0,0,1,.29,1.09L46.43,50.67a1,1,0,0,1-1.1.45A44.53,44.53,0,0,1,37.64,47.56ZM49,9.83a.56.56,0,0,0-.38-.05.52.52,0,0,0-.31.25L30.6,41.84a.73.73,0,0,0,.14.85,43.8,43.8,0,0,0,7,4.64,43.39,43.39,0,0,0,7.64,3.54.73.73,0,0,0,.8-.32L63.7,19.18a.56.56,0,0,0-.2-.74L49,9.84Z"/><path class="cls-4" d="M65.75,20.13a.7.7,0,0,1-.91.28s-6.38-3.14-9.44-4.84-9-5.42-9-5.42a.7.7,0,0,1-.24-.92l1.45-2.59a.72.72,0,0,1,.91-.3s2.71,1.27,9.31,4.95S67,16.6,67,16.6a.72.72,0,0,1,.23.94Z"/><path class="cls-3" d="M55.34,15.68c-3-1.69-8.91-5.38-9-5.42a.83.83,0,0,1-.28-1.09l1.45-2.59a.84.84,0,0,1,1.08-.35s2.79,1.31,9.31,4.95S67,16.48,67,16.5a.84.84,0,0,1,.27,1.1l-1.44,2.59a.83.83,0,0,1-1.08.34C64.72,20.5,58.36,17.37,55.34,15.68ZM57.8,11.4c-6.51-3.63-9.26-4.93-9.29-4.94a.59.59,0,0,0-.75.24L46.32,9.29a.57.57,0,0,0,.19.76c.06,0,5.93,3.72,9,5.4s9.37,4.82,9.43,4.85a.57.57,0,0,0,.74-.23l1.45-2.6a.59.59,0,0,0-.19-.76S64.31,15,57.8,11.4Z"/></g><path class="cls-2" d="M20.38,48.64a.84.84,0,0,1-.64.79,43.24,43.24,0,0,1-8.42.64,43.42,43.42,0,0,1-8.43-.64.84.84,0,0,1-.64-.79V12.21a.64.64,0,0,1,.66-.64l16.82.48a.67.67,0,0,1,.65.67Z"/><path class="cls-3" d="M11.32,50.2a44,44,0,0,1-8.46-.64,1,1,0,0,1-.74-.92V12.21a.76.76,0,0,1,.23-.55.78.78,0,0,1,.56-.22l16.82.48a.81.81,0,0,1,.78.8V48.64a1,1,0,0,1-.74.92A43.78,43.78,0,0,1,11.32,50.2ZM2.89,11.7a.51.51,0,0,0-.36.15.48.48,0,0,0-.15.36V48.64a.74.74,0,0,0,.54.67,45,45,0,0,0,8.4.63,44.9,44.9,0,0,0,8.39-.63.72.72,0,0,0,.54-.67V12.72a.54.54,0,0,0-.53-.54L2.9,11.7Z"/><path class="cls-4" d="M22.5,12.56a.7.7,0,0,1-.65.69s-7.1.36-10.6.36S.78,13.25.78,13.25a.7.7,0,0,1-.65-.69v-3a.72.72,0,0,1,.65-.71s3-.21,10.54-.21,10.53.21,10.53.21a.72.72,0,0,1,.65.71Z"/><path class="cls-3" d="M11.25,13.74c-3.47,0-10.4-.36-10.47-.36A.84.84,0,0,1,0,12.56v-3a.86.86,0,0,1,.78-.84s3.07-.21,10.54-.21,10.51.21,10.54.21a.85.85,0,0,1,.77.84v3a.82.82,0,0,1-.77.81C21.78,13.38,14.71,13.74,11.25,13.74Zm.07-4.94C3.86,8.8.82,9,.79,9a.59.59,0,0,0-.53.58v3a.57.57,0,0,0,.53.56c.07,0,7,.36,10.46.36s10.52-.36,10.59-.36a.58.58,0,0,0,.54-.56v-3A.59.59,0,0,0,21.84,9S18.77,8.8,11.32,8.8Z"/><line class="cls-5" x1="11.32" y1="23.2" x2="11.32" y2="39.68"/><polygon class="cls-3" points="9.86 24.19 11.32 18.77 12.77 24.19 9.86 24.19"/><polygon class="cls-3" points="9.86 38.69 11.32 44.11 12.77 38.69 9.86 38.69"/><g class="cls-6"><path class="cls-2" d="M22,41.5a.86.86,0,0,1-.71.74,43.36,43.36,0,0,1-8.45-.14,43.15,43.15,0,0,1-8.33-1.4.85.85,0,0,1-.57-.85L7.24,3.58A.64.64,0,0,1,8,3L24.66,5a.7.7,0,0,1,.59.74Z"/><path class="cls-3" d="M12.81,42.23a44.64,44.64,0,0,1-8.36-1.4,1,1,0,0,1-.66-1L7.11,3.56A.77.77,0,0,1,7.39,3,.8.8,0,0,1,8,2.87l16.7,2a.81.81,0,0,1,.71.87L22.11,41.51a1,1,0,0,1-.83.86A44.92,44.92,0,0,1,12.81,42.23ZM7.92,3.13a.51.51,0,0,0-.37.11.52.52,0,0,0-.18.35L4.05,39.86a.72.72,0,0,0,.48.72A43.66,43.66,0,0,0,12.83,42a44.39,44.39,0,0,0,8.42.14.73.73,0,0,0,.6-.62L25.12,5.72a.55.55,0,0,0-.48-.59l-16.71-2Z"/><path class="cls-4" d="M27.38,5.76a.71.71,0,0,1-.72.63s-7.1-.28-10.59-.6S5.68,4.47,5.68,4.47a.7.7,0,0,1-.59-.74l.27-3A.72.72,0,0,1,6.08.13s3,.06,10.51.75S27.06,2.05,27.06,2.05a.73.73,0,0,1,.59.76Z"/><path class="cls-3" d="M16.06,5.92C12.6,5.6,5.73,4.61,5.67,4.6A.83.83,0,0,1,5,3.71L5.24.76A.83.83,0,0,1,6.08,0S9.17.07,16.6.75,27.05,1.91,27.08,1.92a.86.86,0,0,1,.7.9L27.5,5.77a.82.82,0,0,1-.85.75C26.58,6.52,19.51,6.23,16.06,5.92ZM16.58,1C9.15.33,6.11.26,6.08.26a.59.59,0,0,0-.59.52l-.27,3a.59.59,0,0,0,.48.61c.07,0,6.94,1,10.38,1.31s10.51.6,10.59.6a.58.58,0,0,0,.58-.51l.27-2.95A.6.6,0,0,0,27,2.17S24,1.68,16.58,1Z"/></g></g></g></g></svg>