<svg xmlns="http://www.w3.org/2000/svg" xmlns:xlink="http://www.w3.org/1999/xlink" viewBox="0 0 93.21 90.56"><defs><style>.cls-1{fill:none;}.cls-2{isolation:isolate;}.cls-3{clip-path:url(#clip-path);}.cls-4{fill:#4da3db;}.cls-5{fill:#4486c7;}.cls-6{fill:#f7f7f8;}.cls-18,.cls-7{fill:#1b1c20;}.cls-8{fill:#0d0506;}.cls-9{fill:#fff;}.cls-10{fill:#d4d3d1;}.cls-11{fill:url(#radial-gradient);}.cls-12,.cls-13,.cls-17{mix-blend-mode:multiply;}.cls-12{fill:url(#radial-gradient-2);}.cls-14{fill:#554946;}.cls-15{clip-path:url(#clip-path-2);}.cls-16{fill:url(#radial-gradient-4);}.cls-17{fill:url(#radial-gradient-5);}.cls-18{font-size:6.61px;font-family:Cocon-Regular, Cocon Regular;letter-spacing:-0.02em;}</style><clipPath id="clip-path"><path class="cls-1" d="M45,64.38,45,74.88s.38.76-1.38.76l-25.25.08s-.76,0-.78-1.11-.06,0-.06,0V64.05Z"/></clipPath><radialGradient id="radial-gradient" cx="568.84" cy="-25.92" r="6.19" gradientTransform="matrix(0.97, -0.26, 0.12, 0.45, -515.65, 191.9)" gradientUnits="userSpaceOnUse"><stop offset="0" stop-color="#009836"/><stop offset="0.5" stop-color="#009836"/><stop offset="1" stop-color="#008055"/></radialGradient><radialGradient id="radial-gradient-2" cx="568.36" cy="253.83" r="6.33" gradientTransform="matrix(0.96, -0.27, 0.12, 0.43, -547.8, 74.86)" gradientUnits="userSpaceOnUse"><stop offset="0" stop-color="#fff"/><stop offset="1" stop-color="#969599"/></radialGradient><clipPath id="clip-path-2"><path class="cls-1" d="M91.64,48.29l.07,26.59s.37.76-1.38.76l-25.26.08s-.76,0-.78-1.11-.06,0-.06,0V48Z"/></clipPath><radialGradient id="radial-gradient-4" cx="77.91" cy="-247.47" r="6.03" gradientTransform="translate(0 173.45) scale(1 0.47)" xlink:href="#radial-gradient"/><radialGradient id="radial-gradient-5" cx="77.77" cy="58.14" r="6.17" gradientTransform="translate(-0.18 32.75) rotate(-0.41) scale(1 0.45)" xlink:href="#radial-gradient-2"/></defs><title>Ресурс 2</title><g class="cls-2"><g id="Слой_2" data-name="Слой 2"><g id="Layer_1" data-name="Layer 1"><g class="cls-3"><path class="cls-4" d="M17.52,67.34l2-.76.84-1L22,67.11l2.11.23,2-1.31.25-.8,1.46,1.88,2.24.23,1.31-.59,1.09-1.22,1.9,1.58,2.19.23L38.43,66l.25-.46,2.15,1.81,2.07-.23,1.48-.83L45,65V89.48s.08,1-.83,1-25.57,0-25.57,0-.95.28-.95-1.09S17.52,67.34,17.52,67.34Z"/><path class="cls-5" d="M44.5,65.06c0,1.23-.94,2-2.5,2-1.72,0-3-1.3-3-2h-.64a2.67,2.67,0,0,1-2.73,2c-1.65,0-2.85-1.29-2.85-2h-.65a2.47,2.47,0,0,1-2.61,2,2.64,2.64,0,0,1-2.74-2h-.64c0,.79-1.15,2-2.73,2a2.64,2.64,0,0,1-2.73-2h-.64a2.53,2.53,0,0,1-2.44,2v.64a3.6,3.6,0,0,0,2.77-1.58,3.23,3.23,0,0,0,.63.72,3.69,3.69,0,0,0,2.41.88,3.56,3.56,0,0,0,3-1.61,3.58,3.58,0,0,0,3.06,1.61,3.37,3.37,0,0,0,3-1.62,4,4,0,0,0,3.15,1.62,3.69,3.69,0,0,0,2.39-.88,3.17,3.17,0,0,0,.67-.77,3.43,3.43,0,0,0,.75.78,4.09,4.09,0,0,0,2.53.88c1.94,0,3.14-1,3.14-2.62Z"/><path class="cls-5" d="M44.5,68.57c0,1.24-.94,2-2.5,2-1.72,0-3-1.31-3-2h-.64a2.68,2.68,0,0,1-2.73,2c-1.65,0-2.85-1.3-2.85-2h-.65a2.48,2.48,0,0,1-2.61,2,2.65,2.65,0,0,1-2.74-2h-.64c0,.79-1.15,2-2.73,2a2.64,2.64,0,0,1-2.73-2h-.64a2.53,2.53,0,0,1-2.44,2v.65a3.64,3.64,0,0,0,2.77-1.59,3,3,0,0,0,.63.72,3.69,3.69,0,0,0,2.41.88,3.56,3.56,0,0,0,3-1.61,3.58,3.58,0,0,0,3.06,1.61,3.37,3.37,0,0,0,3-1.62,4,4,0,0,0,3.15,1.62,3.69,3.69,0,0,0,2.39-.88,3,3,0,0,0,.67-.77,3.43,3.43,0,0,0,.75.78,4.09,4.09,0,0,0,2.53.88c1.94,0,3.14-1,3.14-2.62Z"/><path class="cls-5" d="M44.5,72.08c0,1.24-.94,2-2.5,2-1.72,0-3-1.3-3-2h-.64a2.68,2.68,0,0,1-2.73,2c-1.65,0-2.85-1.3-2.85-2h-.65a2.47,2.47,0,0,1-2.61,2,2.65,2.65,0,0,1-2.74-2h-.64c0,.79-1.15,2-2.73,2a2.64,2.64,0,0,1-2.73-2h-.64a2.53,2.53,0,0,1-2.44,2v.65a3.64,3.64,0,0,0,2.77-1.59,3,3,0,0,0,.63.72,3.69,3.69,0,0,0,2.41.88,3.54,3.54,0,0,0,3-1.61,3.56,3.56,0,0,0,3.06,1.61,3.37,3.37,0,0,0,3-1.62,4,4,0,0,0,3.15,1.62,3.69,3.69,0,0,0,2.39-.88,3,3,0,0,0,.67-.76,3.65,3.65,0,0,0,.75.78A4.15,4.15,0,0,0,42,74.7c1.94,0,3.14-1,3.14-2.62Z"/><path class="cls-5" d="M44.5,75.59c0,1.24-.94,2-2.5,2-1.72,0-3-1.3-3-2h-.64a2.67,2.67,0,0,1-2.73,2c-1.65,0-2.85-1.3-2.85-2h-.65a2.47,2.47,0,0,1-2.61,2,2.65,2.65,0,0,1-2.74-2h-.64c0,.79-1.15,2-2.73,2a2.64,2.64,0,0,1-2.73-2h-.64a2.55,2.55,0,0,1-2.44,2v.64A3.64,3.64,0,0,0,20.4,76.6a3.06,3.06,0,0,0,.63.73,3.73,3.73,0,0,0,2.41.87,3.55,3.55,0,0,0,3-1.6,3.57,3.57,0,0,0,3.06,1.6,3.36,3.36,0,0,0,3-1.61,4,4,0,0,0,3.15,1.61,3.74,3.74,0,0,0,2.39-.87,3.17,3.17,0,0,0,.67-.77,3.65,3.65,0,0,0,.75.78,4.15,4.15,0,0,0,2.53.87c1.94,0,3.14-1,3.14-2.62Z"/><path class="cls-5" d="M44.5,79.1c0,1.24-.94,2-2.5,2-1.72,0-3-1.3-3-2h-.64a2.67,2.67,0,0,1-2.73,2c-1.65,0-2.85-1.29-2.85-2h-.65a2.47,2.47,0,0,1-2.61,2,2.64,2.64,0,0,1-2.74-2h-.64c0,.79-1.15,2-2.73,2a2.63,2.63,0,0,1-2.73-2h-.64a2.54,2.54,0,0,1-2.44,2v.64a3.63,3.63,0,0,0,2.77-1.58,3.23,3.23,0,0,0,.63.72,3.73,3.73,0,0,0,2.41.87,3.55,3.55,0,0,0,3-1.6,3.57,3.57,0,0,0,3.06,1.6,3.36,3.36,0,0,0,3-1.61,4,4,0,0,0,3.15,1.61,3.74,3.74,0,0,0,2.39-.87,3.17,3.17,0,0,0,.67-.77,3.65,3.65,0,0,0,.75.78,4.15,4.15,0,0,0,2.53.87c1.94,0,3.14-1,3.14-2.62Z"/><path class="cls-5" d="M44.5,82.61c0,1.24-.94,2-2.5,2-1.72,0-3-1.3-3-2h-.64a2.67,2.67,0,0,1-2.73,2c-1.65,0-2.85-1.29-2.85-2h-.65a2.47,2.47,0,0,1-2.61,2,2.64,2.64,0,0,1-2.74-2h-.64c0,.8-1.15,2-2.73,2a2.63,2.63,0,0,1-2.73-2h-.64a2.53,2.53,0,0,1-2.44,2v.64a3.6,3.6,0,0,0,2.77-1.58,3.23,3.23,0,0,0,.63.72,3.69,3.69,0,0,0,2.41.88,3.56,3.56,0,0,0,3-1.61,3.58,3.58,0,0,0,3.06,1.61,3.37,3.37,0,0,0,3-1.62,4,4,0,0,0,3.15,1.62,3.75,3.75,0,0,0,2.39-.88,3.17,3.17,0,0,0,.67-.77,3.65,3.65,0,0,0,.75.78,4.09,4.09,0,0,0,2.53.88c1.94,0,3.14-1,3.14-2.63Z"/><path class="cls-5" d="M44.5,86.13c0,1.23-.94,2-2.5,2-1.72,0-3-1.3-3-2h-.64a2.67,2.67,0,0,1-2.73,2c-1.65,0-2.85-1.29-2.85-2h-.65a2.47,2.47,0,0,1-2.61,2,2.64,2.64,0,0,1-2.74-2h-.64c0,.79-1.15,2-2.73,2a2.64,2.64,0,0,1-2.73-2h-.64a2.53,2.53,0,0,1-2.44,2v.65a3.64,3.64,0,0,0,2.77-1.59,3.23,3.23,0,0,0,.63.72,3.69,3.69,0,0,0,2.41.88,3.56,3.56,0,0,0,3-1.61,3.58,3.58,0,0,0,3.06,1.61,3.37,3.37,0,0,0,3-1.62,4,4,0,0,0,3.15,1.62,3.69,3.69,0,0,0,2.39-.88,3,3,0,0,0,.67-.77,3.43,3.43,0,0,0,.75.78,4.09,4.09,0,0,0,2.53.88c1.94,0,3.14-1,3.14-2.62Z"/></g><path class="cls-6" d="M25,78.05h-5.9a.35.35,0,0,1-.35-.36V77.3h6.6v.39A.36.36,0,0,1,25,78.05Z"/><path class="cls-7" d="M25,78.17h-5.9a.48.48,0,0,1-.48-.48v-.51h6.85v.51A.47.47,0,0,1,25,78.17Zm-6.13-.75v.27a.23.23,0,0,0,.23.23H25a.22.22,0,0,0,.22-.23v-.27H18.83Z"/><path class="cls-7" d="M46.53,46.78h-.25V47l.09,29.5a.56.56,0,0,1-.17.4.54.54,0,0,1-.4.16l-28.86.12h0a.57.57,0,0,1-.57-.56l-.08-29.46h0V46.9H16l.09,29.75a.82.82,0,0,0,.82.81h0l28.86-.11a.83.83,0,0,0,.58-.24.84.84,0,0,0,.24-.58Z"/><path class="cls-6" d="M43.67,78.05h-5.9a.36.36,0,0,1-.35-.36V77.3H44v.39A.36.36,0,0,1,43.67,78.05Z"/><path class="cls-7" d="M43.67,78.17h-5.9a.48.48,0,0,1-.48-.48v-.51h6.86v.51A.48.48,0,0,1,43.67,78.17Zm-6.12-.75v.27a.22.22,0,0,0,.22.23h5.9a.22.22,0,0,0,.22-.23v-.27H37.55Z"/><path class="cls-8" d="M45.06,48.48V46.71h-.23v1.77L44.91,75a.55.55,0,0,1-.15.41.48.48,0,0,1-.35.16l-26.11.11h0a.52.52,0,0,1-.36-.16.66.66,0,0,1-.15-.41L17.7,48.59V47h0v-.07h0v-.22h-.23v1.87l.09,26.56a.82.82,0,0,0,.22.56.71.71,0,0,0,.52.24h0l26.11-.11a.67.67,0,0,0,.52-.24.81.81,0,0,0,.21-.56Z"/><rect class="cls-8" x="16.03" y="46.72" width="1.51" height="0.23"/><rect class="cls-8" x="45.02" y="46.71" width="1.51" height="0.23"/><rect class="cls-8" x="17.54" y="8.95" width="0.22" height="1.94" transform="translate(-1.9 15.19) rotate(-44.44)"/><path class="cls-8" d="M20.1,9.94c-.11-.68-2-1.41-2.67-1.64l.06-.21c.28.09,2.68.89,2.82,1.82Z"/><path class="cls-8" d="M27,8.75l-.22,0c.13-.73.63-2.78.63-2.8l.22,0S27.09,8,27,8.75Z"/><path class="cls-8" d="M25.54,8.16c-1.41-.49-1-2.52-1-2.54l.22,0s-.36,1.86.87,2.3Z"/><path class="cls-8" d="M23.72,8.65c-1.41-.5-1-2.53-1-2.55l.21,0s-.35,1.87.88,2.3Z"/><path class="cls-8" d="M21.87,9.69c-1.12-1-.91-3.09-.9-3.18l.21,0s-.2,2.1.83,3Z"/><path class="cls-9" d="M16.41,18l9,29A12.93,12.93,0,0,0,36.24,49c6-1.74,6.43-5.21,6.43-5.21l-8-29.23s-4.31,3.37-8.44,3.78S17.69,18.78,16.41,18Z"/><path class="cls-8" d="M33.07,49.57A13.65,13.65,0,0,1,25.31,47l0,0L16.21,17.7l.25.16c1.34.86,6.09.74,9.76.38,4.05-.4,8.34-3.72,8.38-3.76l.13-.1,8.05,29.41v0c0,.14-.46,3.57-6.51,5.31A11.48,11.48,0,0,1,33.07,49.57Zm-7.6-2.74a12.91,12.91,0,0,0,10.74,2.08c5.68-1.64,6.3-4.83,6.35-5.11l-8-29c-.75.56-4.64,3.34-8.36,3.71s-8,.46-9.65-.28Z"/><path class="cls-10" d="M34.35,9.6s1.61,3.88,1.33,4.21A20.43,20.43,0,0,1,23,18.74c-7.49.23-8-2.11-8-2.11L14,13.42S14.64,9.54,22.58,8,34.35,9.6,34.35,9.6Z"/><path class="cls-8" d="M22,18.87c-6.54,0-7.12-2.12-7.14-2.21l-.91-3.23v0c0-.16.72-4,8.64-5.52S34.38,9.49,34.42,9.52l0,0v0c.49,1.19,1.6,4,1.31,4.32a20.51,20.51,0,0,1-12.78,5Zm-7.82-5.45L15,16.6s.67,2.26,7.94,2A20.33,20.33,0,0,0,35.6,13.74a16.86,16.86,0,0,0-1.34-4.07c-.31-.24-4.16-3-11.66-1.58S14.2,13.1,14.14,13.42Z"/><path class="cls-8" d="M21.3,14.9a22,22,0,0,1-4-.37,15,15,0,0,1-3.32-1l.09-.2s4.84,2.33,11.93.87,8.23-4.59,8.24-4.62l.21.07c0,.13-1.21,3.29-8.4,4.77A23.43,23.43,0,0,1,21.3,14.9Z"/><path class="cls-9" d="M.12,2.91S4.43-.15,7.35.13s10,1.11,11.39.69,3.34,1.11,4,1.39a15.57,15.57,0,0,0,4.45.7c.83-.14,3.47,1.8,4.72,1.94s1.25.7,2.09,1.53,4.72,2.78,3.19,3.47-5-1.39-5.28-2.08-2.5-.28-3.06-.7a3.66,3.66,0,0,0-3.05-1c-1.53.28-3,.12-3.89.42-6.28,2.21-2.25-1.25-2.25-1.25s-4.56,4.31-2.06,5.83,5.42,2.5,6.39,3.62,3.06,3.35,1.11,3.61-4.16-1.5-4.72-2.09c-.9-.93-3.89-2.77-5.56-2.77S9.71,12.77,7.77,11s-1.95-2.5-1-3.33-4.17,3.06-4.44,4.31Z"/><path class="cls-8" d="M24.79,18.46c-1.83,0-4-1.64-4.46-2.14-.88-.92-3.86-2.75-5.48-2.75-1.84,0-5.28-.78-7.16-2.53C6.51,10,6,9.26,6.05,8.66a.94.94,0,0,1,.1-.43c-1.25,1-3.52,2.95-3.7,3.73l-.1.46L0,2.86l.06,0C.24,2.69,4.44-.26,7.36,0l1.7.17c3.39.35,8.51.87,9.65.53s2.49.48,3.41,1a7.48,7.48,0,0,0,.69.37,15.45,15.45,0,0,0,4.39.69,5.44,5.44,0,0,1,2.35.92,8.76,8.76,0,0,0,2.4,1,2,2,0,0,1,1.61.94,6.59,6.59,0,0,0,.54.62,10.32,10.32,0,0,0,1.24.91c1.12.76,2.39,1.62,2.34,2.26a.61.61,0,0,1-.41.48,3.75,3.75,0,0,1-2.67-.28,6.38,6.38,0,0,1-2.76-1.86c-.13-.33-.91-.37-1.6-.4a3,3,0,0,1-1.42-.25l-.11-.08a3.46,3.46,0,0,0-2.86-.87,16.28,16.28,0,0,1-2.11.2A6.84,6.84,0,0,0,22,6.62c-2.91,1-3.45.78-3.61.51A.44.44,0,0,1,18.31,7,5,5,0,0,0,17,10a1.32,1.32,0,0,0,.69,1c1,.63,2.14,1.17,3.12,1.65a11.45,11.45,0,0,1,3.29,2l.15.17c.82.93,2.05,2.32,1.75,3.11a1,1,0,0,1-.85.52ZM7,7.4l0,.07c0,.08,0,.12-.16.24a1.37,1.37,0,0,0-.6,1c0,.52.46,1.18,1.58,2.21a11.79,11.79,0,0,0,7,2.48c1.7,0,4.72,1.85,5.64,2.81.5.52,2.83,2.29,4.63,2,.37,0,.6-.18.68-.38.24-.66-1-2.05-1.71-2.88l-.15-.17a11.64,11.64,0,0,0-3.22-1.94c-1-.48-2.11-1-3.15-1.65a1.56,1.56,0,0,1-.79-1.2c-.12-1.18.92-2.68,1.78-3.69a6.73,6.73,0,0,1,1.06-1.13l.15.17a13.12,13.12,0,0,0-1.06,1.13c-.15.23-.23.43-.16.54s.58.37,3.35-.6a6.48,6.48,0,0,1,1.83-.23A15.84,15.84,0,0,0,25.81,6a3.62,3.62,0,0,1,3,.92L29,7a3.13,3.13,0,0,0,1.3.21c.79,0,1.61.07,1.79.53a6.43,6.43,0,0,0,2.64,1.73,3.45,3.45,0,0,0,2.5.29c.18-.08.27-.18.28-.3,0-.51-1.28-1.4-2.24-2.06A10.31,10.31,0,0,1,34,6.46a6.88,6.88,0,0,1-.56-.64A1.77,1.77,0,0,0,31.93,5a9.1,9.1,0,0,1-2.49-1,6,6,0,0,0-2.2-.9,15.53,15.53,0,0,1-4.51-.7A7.79,7.79,0,0,1,22,1.93c-.89-.52-2.23-1.3-3.24-1C17.59,1.28,12.44.76,9,.41L7.34.24C4.68,0,.78,2.59.25,3L2.38,11.6A21,21,0,0,1,6.9,7.41Z"/><path class="cls-8" d="M27.11,2.93S26.6,1.05,25.77.62a.65.65,0,0,0-.56,0,24.63,24.63,0,0,1-4.12.81l0-.21A26.77,26.77,0,0,0,25.13.37a.91.91,0,0,1,.74,0c.92.48,1.43,2.38,1.45,2.46Z"/><path class="cls-8" d="M5.31,11a5.53,5.53,0,0,1-1.95-.39l.08-.21s2.22.92,3.62-.16l.13.17A3,3,0,0,1,5.31,11Z"/><path class="cls-8" d="M25.16,18.1a4.82,4.82,0,0,1-.94-.12c-.35-.07-1.52-.35-1.7-.82-.25-.64.61-1.79.71-1.92l.06-.07.08,0c1.93.93,2.25,2,2.3,2.27a.6.6,0,0,1-.09.52A.69.69,0,0,1,25.16,18.1Zm-1.81-2.65c-.27.37-.79,1.22-.63,1.63.08.19.5.41,1.11.58a3.72,3.72,0,0,0,1.59.19s.07-.13,0-.33S25.12,16.32,23.35,15.45Z"/><path class="cls-8" d="M21,14.88c-.19-.46-1-.47-1-.47v-.22s1,0,1.22.61Z"/><path class="cls-8" d="M20.75,15.55s-.95-.22-1.06-.86l.22,0c.08.49.88.67.89.68Z"/><polygon class="cls-8" points="20.82 75.72 17.92 75.75 17.73 75.59 17.73 62.2 20.82 62.2 20.82 75.72"/><path class="cls-9" d="M31.12,34.71c-3.52,1-6.63.36-7.1-1.34s1.94-3.79,5.45-4.74,6.64-.36,7.1,1.34S34.64,33.76,31.12,34.71Z"/><path class="cls-9" d="M31.08,34.57c-3.43.93-6.47.38-6.91-1.24s1.91-3.63,5.34-4.56S36,28.39,36.42,30,34.52,33.64,31.08,34.57Z"/><path class="cls-11" d="M31.05,34.45c-3.35.91-6.31.4-6.73-1.16s1.87-3.5,5.22-4.4,6.31-.4,6.74,1.16S34.4,33.55,31.05,34.45Z"/><path class="cls-12" d="M31.05,34.45c-3.35.91-6.31.4-6.73-1.16s1.87-3.5,5.22-4.4,6.31-.4,6.74,1.16S34.4,33.55,31.05,34.45Z"/><path class="cls-12" d="M31.05,34.45c-3.35.91-6.31.4-6.73-1.16s1.87-3.5,5.22-4.4,6.31-.4,6.74,1.16S34.4,33.55,31.05,34.45Z"/><g class="cls-13"><path class="cls-14" d="M32.66,31V31a1.38,1.38,0,0,1,.14-.49,1.42,1.42,0,0,1,.56-.51,1.57,1.57,0,0,1,.3-.12,1.19,1.19,0,0,0,.36-.17l.1-.09.05,0s0,0,0,0a.14.14,0,0,1,.08-.09.07.07,0,0,1,.09.09.14.14,0,0,1,0,.06,1.08,1.08,0,0,1-.12.24A.65.65,0,0,1,34,30l-.23.1-.2.1a.9.9,0,0,0-.27.28l0,.07a.21.21,0,0,0,0,.07.27.27,0,0,1-.06.12s0,0,0,0v.09a.86.86,0,0,0,0,.45.82.82,0,0,0,.18.33l.11.11a.09.09,0,0,1,0,.11.16.16,0,0,1-.14.11h0l-.08,0a.79.79,0,0,1-.45-.11,1,1,0,0,1-.16-.12,1.6,1.6,0,0,1-.36-.46,1.27,1.27,0,0,0-.13-.19.63.63,0,0,0-.21-.18l0,0s0,0,0,0-.06,0-.05-.07v0a.1.1,0,0,1,.08-.08l.12,0h0s0,0,.06,0a.37.37,0,0,1,.3.09.81.81,0,0,1,.16.16l0,0s0,0,0,0"/><path class="cls-14" d="M32.41,32.05h0l-.19-.11a.42.42,0,0,1-.18-.17l-.13-.23a1,1,0,0,0-.23-.32l-.13-.12a.78.78,0,0,0-.21-.09A.62.62,0,0,0,31,31h0a.2.2,0,0,0-.11,0s-.07,0-.09,0l-.07.05s0,0-.06,0l-.12.1a1.32,1.32,0,0,0-.12.2l0,.11a.74.74,0,0,0,0,.33.75.75,0,0,0,.4.57.76.76,0,0,0,.3.1.83.83,0,0,0,.6-.19.58.58,0,0,0,.17-.18h0a.55.55,0,0,0,.25.07l.18,0a.28.28,0,0,0,.12,0,.1.1,0,0,0,0-.18m-.92-.27a.11.11,0,0,0,0,.06.3.3,0,0,1-.13.2l-.06,0a0,0,0,0,0,0,0h0a.49.49,0,0,1-.13,0,.39.39,0,0,1-.17-.09.25.25,0,0,1-.09-.2.27.27,0,0,1,0-.09.3.3,0,0,1,.24-.23.29.29,0,0,1,.24,0,.3.3,0,0,1,.12.13.21.21,0,0,0,.06.1s0,0,0,0"/><path class="cls-14" d="M35.48,31.23h0l-.19-.12a.42.42,0,0,1-.18-.17,1.71,1.71,0,0,1-.13-.23,1,1,0,0,0-.23-.32l-.13-.11a.56.56,0,0,0-.21-.09.53.53,0,0,0-.33,0h0a.15.15,0,0,0-.11,0s-.07,0-.09,0l-.07,0s0,0-.06,0l-.12.11a2,2,0,0,0-.12.19.53.53,0,0,0,0,.12.69.69,0,0,0,0,.32.73.73,0,0,0,.4.57.63.63,0,0,0,.3.1.83.83,0,0,0,.6-.19.58.58,0,0,0,.17-.18h0a.55.55,0,0,0,.25.07h.17l.13-.05a.1.1,0,0,0,0-.18M34.56,31a.08.08,0,0,0,0,.05.3.3,0,0,1-.13.2l-.06,0H34.3a.21.21,0,0,1-.14,0,.31.31,0,0,1-.17-.09.25.25,0,0,1-.09-.2.27.27,0,0,1,0-.09.3.3,0,0,1,.24-.23.26.26,0,0,1,.24,0,.28.28,0,0,1,.12.12.24.24,0,0,0,.06.11s0,0,0,0"/><path class="cls-14" d="M30.25,31.34a1.11,1.11,0,0,1-.07-.16.05.05,0,0,0,0,0l-.18.09a2.46,2.46,0,0,0-.27.17,2.73,2.73,0,0,0-.32.35h0c-.09-.05-.18-.11-.27-.15l-.17-.09h-.05a.6.6,0,0,0-.09.13s0,0,0,.06l.05,0A1.24,1.24,0,0,1,29,32a1.13,1.13,0,0,1,.12.18s0,0,0,0,0,0,0,0,0,0,0,.05.06.25.08.37,0,.19,0,.28l0,.13,0,0,.27,0,.22,0,0,0,.06,0,.09,0s.08,0,.09-.09v0s0-.05,0-.05H30a0,0,0,0,1-.05,0,.13.13,0,0,0,0-.09l-.05,0,0,0h0a.69.69,0,0,1,0-.63,1.19,1.19,0,0,1,.24-.34h0l0,0,.12-.11h0a.06.06,0,0,0,0,0"/><path class="cls-14" d="M28.8,32.19a.16.16,0,0,0,0-.09s0,0,0,0a1.66,1.66,0,0,0-.22-.35.11.11,0,0,0-.16,0l-.13.1a.16.16,0,0,0-.06.17.88.88,0,0,0,0,.15c0,.09.07.17.09.24a.39.39,0,0,1,0,.14.33.33,0,0,1-.15.34.35.35,0,0,1-.3,0h0l-.08,0,0,0a.53.53,0,0,1-.13-.2.8.8,0,0,1-.06-.37v-.13a.12.12,0,0,0-.1-.1h-.27a.12.12,0,0,0-.1.08s0,0,0,.06,0,0,0,0h0a1.27,1.27,0,0,0,0,.2.28.28,0,0,0,0,.09,1.29,1.29,0,0,0,.13.46,1,1,0,0,0,.53.45h.11a.55.55,0,0,0,.18,0,1.26,1.26,0,0,0,.28-.05s.05,0,.06,0a.09.09,0,0,1,.06,0,.29.29,0,0,0,.14-.08l.12-.13a.42.42,0,0,0,.09-.14.16.16,0,0,1,0-.07s0,0,0-.08v-.06a.11.11,0,0,0,0-.08h0v-.08a1,1,0,0,0,0-.24.93.93,0,0,0,0-.13"/><path class="cls-14" d="M26.54,31.68a.22.22,0,0,1-.07-.13c0-.09.09-.23.05-.37a.27.27,0,0,0-.4-.13.31.31,0,0,0-.13.49c.15.19.55.14.55.14"/><path class="cls-14" d="M26.58,31.81a.57.57,0,0,1-.21,0,1.91,1.91,0,0,0-.3,0c-.05,0-.11.12-.05.33s.35.7.36.78a.35.35,0,0,1-.09.39.29.29,0,0,1-.37,0l-.13-.09a.3.3,0,0,0-.33.13.28.28,0,0,0,.05.35.78.78,0,0,0,.85.21.83.83,0,0,0,.64-.8c0-.44-.35-.76-.4-1a.62.62,0,0,1,0-.3"/></g><path class="cls-9" d="M32.66,30.9a.43.43,0,0,1,0,0,1,1,0,0,1,.14-.49,1.26,1.26,0,0,1,.55-.52,1.66,1.66,0,0,1,.31-.12,1.23,1.23,0,0,0,.35-.16.47.47,0,0,0,.1-.1l.06,0,0,0a.18.18,0,0,1,.08-.09.07.07,0,0,1,.1.08s0,0,0,.06a1.19,1.19,0,0,1-.13.25.64.64,0,0,1-.25.21l-.23.11-.19.1a.81.81,0,0,0-.28.27.43.43,0,0,1,0,.07l0,.07a.29.29,0,0,1-.05.13s0,0,0,0a.27.27,0,0,1,0,.09,1,1,0,0,0,0,.46.78.78,0,0,0,.18.32l.11.11a.09.09,0,0,1,0,.11.14.14,0,0,1-.14.11h0l-.08,0a.87.87,0,0,1-.45-.1.65.65,0,0,1-.16-.13,1.59,1.59,0,0,1-.36-.45l-.12-.2a.68.68,0,0,0-.21-.17s0,0,0,0l0,0c-.05,0-.06,0-.06-.07v0a.11.11,0,0,1,.09-.09l.11,0h0s0,0,.06,0a.38.38,0,0,1,.31.08.75.75,0,0,1,.15.16l0,.05,0,0"/><path class="cls-9" d="M32.42,31.91h0l-.2-.11a.62.62,0,0,1-.18-.18l-.12-.23a1.49,1.49,0,0,0-.24-.32.69.69,0,0,0-.13-.11.56.56,0,0,0-.21-.09.62.62,0,0,0-.33,0h0a.21.21,0,0,0-.11,0s-.06,0-.09,0l-.06,0-.06.05a.4.4,0,0,0-.12.1.82.82,0,0,0-.12.2.36.36,0,0,0,0,.11.86.86,0,0,0,0,.32.76.76,0,0,0,.4.58.77.77,0,0,0,.29.1.85.85,0,0,0,.6-.19.61.61,0,0,0,.17-.19l0,0a.61.61,0,0,0,.24.06h.18l.12,0a.11.11,0,0,0,0-.19m-.93-.26s0,0,0,.05a.32.32,0,0,1-.12.2l-.07,0,0,0h0a.21.21,0,0,1-.14,0,.35.35,0,0,1-.17-.09.25.25,0,0,1-.09-.2v-.09a.3.3,0,0,1,.24-.23.28.28,0,0,1,.25,0,.32.32,0,0,1,.11.12.39.39,0,0,0,.06.11s0,0,0,0"/><path class="cls-9" d="M35.49,31.1h0l-.2-.11a.58.58,0,0,1-.18-.17L35,30.58a1.55,1.55,0,0,0-.24-.33l-.13-.11a.56.56,0,0,0-.21-.09.62.62,0,0,0-.33,0h0a.2.2,0,0,0-.11,0s-.06,0-.09,0l-.06,0-.06,0a.4.4,0,0,0-.12.1.82.82,0,0,0-.12.2.36.36,0,0,0,0,.11,1.22,1.22,0,0,0,0,.33.78.78,0,0,0,.41.57.77.77,0,0,0,.29.1.81.81,0,0,0,.6-.19.52.52,0,0,0,.17-.19l0,0a.84.84,0,0,0,.24.07l.18,0a.28.28,0,0,0,.12,0,.1.1,0,0,0,0-.18m-.93-.27s0,0,0,.06a.3.3,0,0,1-.12.19l-.07,0,0,0h0s0,0,0,0a.53.53,0,0,1-.14,0,.46.46,0,0,1-.17-.09.29.29,0,0,1-.09-.21v-.08a.3.3,0,0,1,.24-.23.28.28,0,0,1,.25,0,.28.28,0,0,1,.11.13.53.53,0,0,0,.06.1,0,0,0,0,1,0,0"/><path class="cls-9" d="M30.25,31.2l-.07-.15s0,0,0,0l-.18.08a1.67,1.67,0,0,0-.26.17,2.64,2.64,0,0,0-.32.35h0l-.26-.15-.17-.08a0,0,0,0,0-.05,0,.64.64,0,0,0-.1.13s0,0,0,.05l0,0a1.19,1.19,0,0,1,.19.2.94.94,0,0,1,.12.18.08.08,0,0,0,0,0,0,0,0,0,1,0,0,.43.43,0,0,0,0,0,2.21,2.21,0,0,1,.08.37,2.7,2.7,0,0,1,0,.28l0,.12s0,0,0,0l.26,0,.22,0,0,0s0,0,.05,0l.09,0s.08,0,.09-.09v0s0,0,0,0H30s-.05,0-.05,0a.12.12,0,0,0,0-.08l-.05,0,0,0h0a.71.71,0,0,1,0-.64,1.28,1.28,0,0,1,.24-.33h0l0,0,.12-.11h0s0,0,0,0"/><path class="cls-9" d="M28.81,32.06a.36.36,0,0,0,0-.09,0,0,0,0,1,0,0,1.66,1.66,0,0,0-.22-.35s-.11,0-.16,0l-.13.1a.16.16,0,0,0-.06.17.75.75,0,0,0,0,.16l.1.24a.68.68,0,0,1,0,.14.34.34,0,0,1-.15.34.35.35,0,0,1-.3,0h0l-.08,0,0,0a.74.74,0,0,1-.13-.21.93.93,0,0,1-.06-.37V32c0-.06,0-.1-.1-.1h-.26c-.06,0-.08,0-.1.08l0,0a.06.06,0,0,1,0,0h0a1.34,1.34,0,0,0,0,.2s0,.06,0,.09a1.1,1.1,0,0,0,.14.46.93.93,0,0,0,.52.46h.11a.55.55,0,0,0,.18,0,.87.87,0,0,0,.28-.05.07.07,0,0,0,.06,0l.06,0a.25.25,0,0,0,.14-.08l.12-.13a.6.6,0,0,0,.09-.15l0-.07a.09.09,0,0,0,0-.07.13.13,0,0,1,0-.06.22.22,0,0,0,0-.08v-.1a.66.66,0,0,0,0-.24l0-.12"/><path class="cls-9" d="M26.54,31.54a.18.18,0,0,1-.07-.13c0-.08.1-.22.06-.36a.28.28,0,0,0-.41-.14.33.33,0,0,0-.13.5c.15.18.55.13.55.13"/><path class="cls-9" d="M26.58,31.68a.62.62,0,0,1-.2,0c-.13,0-.26,0-.31,0S26,31.81,26,32s.35.71.37.79a.37.37,0,0,1-.09.38.32.32,0,0,1-.38,0,.38.38,0,0,0-.13-.09.28.28,0,0,0-.33.12.3.3,0,0,0,.05.36.79.79,0,0,0,.85.2A.83.83,0,0,0,27,33c0-.44-.34-.75-.4-1a.61.61,0,0,1,0-.3"/><path class="cls-6" d="M71.54,78.05H65.65a.35.35,0,0,1-.35-.36V77.3h6.59v.39A.35.35,0,0,1,71.54,78.05Z"/><path class="cls-7" d="M71.54,78.17H65.65a.47.47,0,0,1-.48-.48v-.51H72v.51A.47.47,0,0,1,71.54,78.17Zm-6.12-.75v.27a.23.23,0,0,0,.23.23h5.89a.23.23,0,0,0,.23-.23v-.27H65.42Z"/><path class="cls-7" d="M93.12,46.78h-.25V47L93,76.53a.55.55,0,0,1-.56.56l-28.86.12h0a.56.56,0,0,1-.56-.56l-.09-29.46h0V46.9h-.25l.09,29.75a.81.81,0,0,0,.81.81h0l28.86-.11a.83.83,0,0,0,.58-.24.84.84,0,0,0,.24-.58Z"/><path class="cls-6" d="M90.26,78.05h-5.9a.36.36,0,0,1-.35-.36V77.3h6.6v.39A.36.36,0,0,1,90.26,78.05Z"/><path class="cls-7" d="M90.26,78.17h-5.9a.48.48,0,0,1-.48-.48v-.51h6.85v.51A.47.47,0,0,1,90.26,78.17Zm-6.13-.75v.27a.23.23,0,0,0,.23.23h5.9a.22.22,0,0,0,.22-.23v-.27H84.13Z"/><path class="cls-7" d="M62.59,46.33h.26V46.2l-.09-16.51a.58.58,0,0,1,.16-.4.56.56,0,0,1,.4-.17l29-.12h0a.58.58,0,0,1,.57.57L93,46h0v.29h.26l-.09-16.76a.82.82,0,0,0-.82-.82h0l-29,.12a.8.8,0,0,0-.58.24.82.82,0,0,0-.23.58Z"/><rect class="cls-8" x="62.62" y="46.72" width="1.51" height="0.23"/><rect class="cls-8" x="91.61" y="46.71" width="1.51" height="0.23"/><path class="cls-8" d="M91.64,48.48V46.71h-.23v1.77L91.5,75a.59.59,0,0,1-.15.41.48.48,0,0,1-.36.16l-26.1.11h0a.5.5,0,0,1-.36-.16.61.61,0,0,1-.15-.41l-.09-26.56V47h0v-.07h0v-.22h-.23v1.87l.09,26.56a.86.86,0,0,0,.21.56.73.73,0,0,0,.53.24h0L91,75.84a.69.69,0,0,0,.52-.24.81.81,0,0,0,.21-.56Z"/><rect class="cls-8" x="91.61" y="46.1" width="1.51" height="0.23" transform="translate(184.73 92.43) rotate(180)"/><rect class="cls-8" x="62.62" y="46.1" width="1.4" height="0.23" transform="translate(126.64 92.44) rotate(180)"/><path class="cls-8" d="M64.22,46.12V44.57l-.09-13.26a.6.6,0,0,1,.16-.41.48.48,0,0,1,.35-.16l26.22-.11h0a.52.52,0,0,1,.36.16.59.59,0,0,1,.15.41l.09,13.26V46h0v.06h0v.23h.23V44.46L91.59,31.2a.82.82,0,0,0-.22-.56.69.69,0,0,0-.52-.24h0l-26.22.11a.67.67,0,0,0-.52.24.77.77,0,0,0-.21.56L64,44.57v1.76h.23Z"/><g class="cls-15"><path class="cls-4" d="M64.18,57.35l2-.76L67,55.54l1.64,1.58,2.11.23,2-1.31.25-.8,1.46,1.88,2.24.23,1.31-.59,1.09-1.22L81,57.12l2.19.23L85.09,56l.25-.46,2.16,1.81,2.06-.23L91,56.29l.6-1.29V79.5s.08,1-.83,1H65.24s-.95.28-.95-1.09S64.18,57.35,64.18,57.35Z"/><path class="cls-5" d="M91.16,55.07c0,1.24-.94,2-2.5,2s-3-1.3-3-2h-.64a2.67,2.67,0,0,1-2.73,2c-1.65,0-2.85-1.29-2.85-2h-.65a2.46,2.46,0,0,1-2.61,2,2.64,2.64,0,0,1-2.74-2h-.64c0,.79-1.15,2-2.73,2a2.62,2.62,0,0,1-2.72-2h-.65a2.53,2.53,0,0,1-2.44,2v.65a3.64,3.64,0,0,0,2.77-1.59,3,3,0,0,0,.63.72,3.69,3.69,0,0,0,2.41.88,3.56,3.56,0,0,0,3.05-1.61,3.58,3.58,0,0,0,3.06,1.61,3.35,3.35,0,0,0,3-1.62,4,4,0,0,0,3.15,1.62,3.7,3.7,0,0,0,2.4-.88,3.43,3.43,0,0,0,.67-.77,3.18,3.18,0,0,0,.74.78,4.09,4.09,0,0,0,2.53.88c1.94,0,3.15-1,3.15-2.62Z"/><path class="cls-5" d="M91.16,58.58c0,1.24-.94,2-2.5,2s-3-1.3-3-2h-.64a2.68,2.68,0,0,1-2.73,2c-1.65,0-2.85-1.3-2.85-2h-.65a2.46,2.46,0,0,1-2.61,2,2.65,2.65,0,0,1-2.74-2h-.64c0,.79-1.15,2-2.73,2a2.63,2.63,0,0,1-2.72-2h-.65a2.53,2.53,0,0,1-2.44,2v.65a3.64,3.64,0,0,0,2.77-1.59,3,3,0,0,0,.63.72,3.69,3.69,0,0,0,2.41.88,3.56,3.56,0,0,0,3.05-1.61,3.58,3.58,0,0,0,3.06,1.61,3.35,3.35,0,0,0,3-1.62,4,4,0,0,0,3.15,1.62,3.7,3.7,0,0,0,2.4-.88,3.39,3.39,0,0,0,.67-.76,3.37,3.37,0,0,0,.74.78,4.15,4.15,0,0,0,2.53.87c1.94,0,3.15-1,3.15-2.62Z"/><path class="cls-5" d="M91.16,62.09c0,1.24-.94,2-2.5,2s-3-1.3-3-2h-.64a2.67,2.67,0,0,1-2.73,2c-1.65,0-2.85-1.3-2.85-2h-.65a2.46,2.46,0,0,1-2.61,2,2.65,2.65,0,0,1-2.74-2h-.64c0,.79-1.15,2-2.73,2a2.63,2.63,0,0,1-2.72-2h-.65a2.53,2.53,0,0,1-2.44,2v.65a3.64,3.64,0,0,0,2.77-1.59,3.06,3.06,0,0,0,.63.73,3.73,3.73,0,0,0,2.41.87,3.55,3.55,0,0,0,3.05-1.6,3.57,3.57,0,0,0,3.06,1.6,3.33,3.33,0,0,0,3-1.62,4,4,0,0,0,3.15,1.62,3.7,3.7,0,0,0,2.4-.88,3.39,3.39,0,0,0,.67-.76,3.37,3.37,0,0,0,.74.78,4.15,4.15,0,0,0,2.53.87c1.94,0,3.15-1,3.15-2.62Z"/><path class="cls-5" d="M91.16,65.6c0,1.24-.94,2-2.5,2s-3-1.3-3-2h-.64a2.67,2.67,0,0,1-2.73,2c-1.65,0-2.85-1.29-2.85-2h-.65a2.46,2.46,0,0,1-2.61,2,2.64,2.64,0,0,1-2.74-2h-.64c0,.79-1.15,2-2.73,2a2.62,2.62,0,0,1-2.72-2h-.65a2.54,2.54,0,0,1-2.44,2v.64a3.63,3.63,0,0,0,2.77-1.58,3.23,3.23,0,0,0,.63.72,3.73,3.73,0,0,0,2.41.87,3.55,3.55,0,0,0,3.05-1.6,3.57,3.57,0,0,0,3.06,1.6,3.35,3.35,0,0,0,3-1.61,4,4,0,0,0,3.15,1.61,3.74,3.74,0,0,0,2.4-.87,3.66,3.66,0,0,0,.67-.77,3.37,3.37,0,0,0,.74.78,4.15,4.15,0,0,0,2.53.87c1.94,0,3.15-1,3.15-2.62Z"/><path class="cls-5" d="M91.16,69.11c0,1.24-.94,2-2.5,2s-3-1.3-3-2h-.64a2.67,2.67,0,0,1-2.73,2c-1.65,0-2.85-1.29-2.85-2h-.65a2.46,2.46,0,0,1-2.61,2,2.64,2.64,0,0,1-2.74-2h-.64c0,.8-1.15,2-2.73,2a2.62,2.62,0,0,1-2.72-2h-.65a2.54,2.54,0,0,1-2.44,2v.64a3.63,3.63,0,0,0,2.77-1.58,3.23,3.23,0,0,0,.63.72,3.74,3.74,0,0,0,2.41.88,3.56,3.56,0,0,0,3.05-1.61,3.58,3.58,0,0,0,3.06,1.61,3.35,3.35,0,0,0,3-1.62,4,4,0,0,0,3.15,1.62,3.75,3.75,0,0,0,2.4-.88,3.66,3.66,0,0,0,.67-.77,3.37,3.37,0,0,0,.74.78,4.09,4.09,0,0,0,2.53.88c1.94,0,3.15-1,3.15-2.63Z"/><path class="cls-5" d="M91.16,72.63c0,1.23-.94,2-2.5,2s-3-1.3-3-2h-.64a2.67,2.67,0,0,1-2.73,2c-1.65,0-2.85-1.29-2.85-2h-.65a2.46,2.46,0,0,1-2.61,2,2.64,2.64,0,0,1-2.74-2h-.64c0,.79-1.15,2-2.73,2a2.62,2.62,0,0,1-2.72-2h-.65a2.53,2.53,0,0,1-2.44,2v.64a3.6,3.6,0,0,0,2.77-1.58,3.23,3.23,0,0,0,.63.72,3.69,3.69,0,0,0,2.41.88,3.56,3.56,0,0,0,3.05-1.61,3.58,3.58,0,0,0,3.06,1.61,3.35,3.35,0,0,0,3-1.62,4,4,0,0,0,3.15,1.62,3.61,3.61,0,0,0,3.07-1.65,3.18,3.18,0,0,0,.74.78,4.09,4.09,0,0,0,2.53.88c1.94,0,3.15-1,3.15-2.62Z"/><path class="cls-5" d="M91.16,76.14c0,1.24-.94,2-2.5,2s-3-1.31-3-2h-.64a2.68,2.68,0,0,1-2.73,2c-1.65,0-2.85-1.3-2.85-2h-.65a2.47,2.47,0,0,1-2.61,2,2.65,2.65,0,0,1-2.74-2h-.64c0,.79-1.15,2-2.73,2a2.63,2.63,0,0,1-2.72-2h-.65a2.53,2.53,0,0,1-2.44,2v.65a3.64,3.64,0,0,0,2.77-1.59,3,3,0,0,0,.63.72,3.69,3.69,0,0,0,2.41.88,3.56,3.56,0,0,0,3.05-1.61,3.58,3.58,0,0,0,3.06,1.61,3.35,3.35,0,0,0,3-1.62,4,4,0,0,0,3.15,1.62,3.7,3.7,0,0,0,2.4-.88,3.43,3.43,0,0,0,.67-.77,3.18,3.18,0,0,0,.74.78,4.09,4.09,0,0,0,2.53.88c1.94,0,3.15-1,3.15-2.62Z"/></g><polygon class="cls-8" points="67.32 75.72 64.43 75.75 64.23 75.59 64.23 62.2 67.32 62.2 67.32 75.72"/><path class="cls-9" d="M86.47,74.32a.8.8,0,0,1-.6.75,41.31,41.31,0,0,1-8,.6,41.12,41.12,0,0,1-8-.6.8.8,0,0,1-.61-.75V39.92a.6.6,0,0,1,.62-.6l15.88.45a.64.64,0,0,1,.62.64Z"/><path class="cls-8" d="M77.91,75.79a41.66,41.66,0,0,1-8-.6.93.93,0,0,1-.7-.87V39.92a.74.74,0,0,1,.22-.52.73.73,0,0,1,.53-.2l15.88.45a.77.77,0,0,1,.74.76V74.32a.94.94,0,0,1-.71.87A41.4,41.4,0,0,1,77.91,75.79ZM70,39.44a.47.47,0,0,0-.33.14.49.49,0,0,0-.15.34v34.4A.69.69,0,0,0,70,75a41.12,41.12,0,0,0,7.93.6,41,41,0,0,0,7.93-.6.68.68,0,0,0,.51-.63V40.41a.52.52,0,0,0-.5-.52L70,39.44Z"/><path class="cls-10" d="M88.48,40.25a.66.66,0,0,1-.62.65s-6.7.34-10,.34S68,40.9,68,40.9a.66.66,0,0,1-.62-.65v-2.8a.68.68,0,0,1,.62-.67s2.82-.2,9.94-.2,10,.2,10,.2a.68.68,0,0,1,.62.67Z"/><path class="cls-8" d="M77.85,41.37C74.57,41.37,68,41,68,41a.78.78,0,0,1-.73-.77v-2.8a.8.8,0,0,1,.73-.79s2.9-.2,10-.2,9.93.2,10,.2a.8.8,0,0,1,.73.79v2.8a.78.78,0,0,1-.74.77C87.8,41,81.12,41.37,77.85,41.37Zm.06-4.67c-7,0-9.91.2-9.93.2a.56.56,0,0,0-.51.55v2.8a.54.54,0,0,0,.5.53c.07,0,6.61.34,9.88.34s9.93-.34,10-.34a.53.53,0,0,0,.5-.53v-2.8a.55.55,0,0,0-.5-.55S85,36.7,77.91,36.7Z"/><path class="cls-9" d="M77.91,61.32c-3.55,0-6.33-1.35-6.33-3.07s2.78-3.08,6.33-3.08,6.33,1.35,6.33,3.08S81.46,61.32,77.91,61.32Z"/><path class="cls-9" d="M77.91,61.17c-3.46,0-6.18-1.28-6.18-2.92s2.72-2.93,6.18-2.93,6.19,1.29,6.19,2.93S81.38,61.17,77.91,61.17Z"/><ellipse class="cls-16" cx="77.91" cy="58.25" rx="6.03" ry="2.81"/><ellipse class="cls-17" cx="77.91" cy="58.25" rx="6.03" ry="2.81"/><ellipse class="cls-17" cx="77.91" cy="58.25" rx="6.03" ry="2.81"/><g class="cls-13"><path class="cls-14" d="M80.29,58.25s0,0,0,0a1.14,1.14,0,0,1,.26-.42,1.27,1.27,0,0,1,.65-.35,1.66,1.66,0,0,1,.32,0,.94.94,0,0,0,.37-.07.45.45,0,0,0,.12-.06l.07,0,0,0a.11.11,0,0,1,.09-.06.06.06,0,0,1,.07.1l0,.05a1.12,1.12,0,0,1-.18.2.78.78,0,0,1-.29.14l-.24,0-.21,0a.84.84,0,0,0-.33.19L81,58l0,.06a.43.43,0,0,1-.09.1s0,0,0,0,0,.06,0,.09a1,1,0,0,0-.1.43.86.86,0,0,0,.09.35l.08.13a.11.11,0,0,1,0,.11.16.16,0,0,1-.16.07s0,0,0,0h-.08a.81.81,0,0,1-.4-.21,1.67,1.67,0,0,1-.12-.16,1.7,1.7,0,0,1-.22-.52,1.42,1.42,0,0,0-.07-.22,1.07,1.07,0,0,0-.15-.22.05.05,0,0,1,0,0,0,0,0,0,0,0,0s0,0,0-.08v0a.08.08,0,0,1,.1-.06h.16s0,0,.05,0a.37.37,0,0,1,.27.16.59.59,0,0,1,.11.19.08.08,0,0,0,0,0l0,0"/><path class="cls-14" d="M79.81,59.14h0L79.64,59a.45.45,0,0,1-.12-.21,1.83,1.83,0,0,1-.06-.25,1.13,1.13,0,0,0-.14-.36L79.23,58a.62.62,0,0,0-.18-.14.58.58,0,0,0-.31-.08h0a.14.14,0,0,0-.11,0h-.1l-.07,0-.06,0a.35.35,0,0,0-.14.06.87.87,0,0,0-.17.16l-.06.09a.85.85,0,0,0-.09.31.77.77,0,0,0,.23.64.9.9,0,0,0,.26.17.81.81,0,0,0,.61,0,.57.57,0,0,0,.21-.13l0,0a.57.57,0,0,0,.21.13l.17,0h.13a.1.1,0,0,0,0-.17M79,58.66s0,0,0,0a.33.33,0,0,1-.17.16h-.12a.31.31,0,0,1-.13,0,.35.35,0,0,1-.14-.13.26.26,0,0,1,0-.21.19.19,0,0,1,0-.08.29.29,0,0,1,.28-.16.3.3,0,0,1,.23.1.27.27,0,0,1,.07.14.53.53,0,0,0,0,.12s0,0,0,0"/><path class="cls-14" d="M82.9,59.16h0L82.74,59a.57.57,0,0,1-.13-.21l-.06-.25a1.22,1.22,0,0,0-.14-.36,1.1,1.1,0,0,0-.09-.14.46.46,0,0,0-.18-.13.54.54,0,0,0-.31-.09h0a.17.17,0,0,0-.1,0,.17.17,0,0,1-.1,0l-.07,0-.07,0a.35.35,0,0,0-.14.06,1.21,1.21,0,0,0-.16.16.36.36,0,0,0-.07.1,1,1,0,0,0-.08.3.7.7,0,0,0,.23.64.74.74,0,0,0,.25.17.83.83,0,0,0,.62,0,.63.63,0,0,0,.2-.13l0,0a.55.55,0,0,0,.21.12,1,1,0,0,0,.17,0,.56.56,0,0,0,.13,0,.1.1,0,0,0,.05-.17m-.8-.49,0,0a.41.41,0,0,1-.17.15l-.07,0h0a.39.39,0,0,1-.14,0,.38.38,0,0,1-.13-.12.29.29,0,0,1,0-.22s0-.06,0-.08a.27.27,0,0,1,.28-.15.25.25,0,0,1,.22.09.26.26,0,0,1,.07.15.36.36,0,0,0,0,.11,0,0,0,0,1,0,0"/><path class="cls-14" d="M78,57.92l0-.16s0,0,0,0l-.2,0a1.42,1.42,0,0,0-.29.1,3.29,3.29,0,0,0-.39.24h0l-.21-.21-.14-.12a0,0,0,0,0,0,0,.26.26,0,0,0-.11.1s0,0,0,.05l0,0a2.6,2.6,0,0,1,.13.24,1.17,1.17,0,0,1,.06.2.08.08,0,0,0,0,0h0l0,0c0,.13,0,.25,0,.38s0,.18,0,.27v.12s0,0,0,0l.25,0h.41a.15.15,0,0,0,.11-.07v0s0-.05,0-.06h-.08a.07.07,0,0,1,0-.06.14.14,0,0,0,0-.09.1.1,0,0,1,0-.05l0,0h0a.68.68,0,0,1,.16-.6,1.54,1.54,0,0,1,.31-.25h0l0,0,.13-.07h0a.05.05,0,0,0,0,0"/><path class="cls-14" d="M76.37,58.36s0-.06,0-.09v0a2.34,2.34,0,0,0-.12-.39c0-.05-.1-.06-.15,0l-.14.06a.16.16,0,0,0-.1.15.85.85,0,0,0,0,.16,2.13,2.13,0,0,1,0,.25.53.53,0,0,1,0,.13.31.31,0,0,1-.23.28.28.28,0,0,1-.28-.05h0l-.06-.07,0,0a.94.94,0,0,1-.07-.22.92.92,0,0,1,0-.37l0-.12a.09.09,0,0,0-.07-.11l-.1,0-.14,0a.1.1,0,0,0-.12.05l0,0s0,0,0,0h0a1.07,1.07,0,0,0-.07.19s0,0,0,.08a1.07,1.07,0,0,0,0,.47.91.91,0,0,0,.38.56l0,0,.06,0h0a1,1,0,0,0,.16.06,1.32,1.32,0,0,0,.28,0,.1.1,0,0,0,.07,0s0,0,.06,0a.19.19,0,0,0,.15,0l.15-.09a.43.43,0,0,0,.12-.11.34.34,0,0,1,.06-.06s0,0,0-.06a.14.14,0,0,1,0-.06.08.08,0,0,0,0-.07v0s0,0,0-.07a.93.93,0,0,0,0-.23c0-.05,0-.09,0-.13"/><path class="cls-14" d="M74.38,57.3a.2.2,0,0,1,0-.14c0-.08.15-.19.15-.33a.27.27,0,0,0-.35-.23.31.31,0,0,0-.25.43c.09.21.49.27.49.27"/><path class="cls-14" d="M74.38,57.44l-.2,0c-.12,0-.23-.11-.28-.09s-.14.07-.14.29.15.75.15.83a.36.36,0,0,1-.19.34.29.29,0,0,1-.34-.11.65.65,0,0,0-.11-.12.26.26,0,0,0-.33,0,.28.28,0,0,0,0,.35.78.78,0,0,0,.75.41.8.8,0,0,0,.8-.59c.11-.42-.13-.8-.12-1a.63.63,0,0,1,.06-.28"/></g><path class="cls-9" d="M80.33,58.12s0,0,0,0a1.18,1.18,0,0,1,.26-.43,1.27,1.27,0,0,1,.65-.34,1.65,1.65,0,0,1,.32,0,1.19,1.19,0,0,0,.37-.06l.12-.06.06,0s0,0,0,0a.15.15,0,0,1,.09-.06.07.07,0,0,1,.07.1l0,0a.88.88,0,0,1-.18.2.71.71,0,0,1-.29.14l-.24,0-.21,0a.69.69,0,0,0-.33.19l-.06.05,0,.06a.2.2,0,0,1-.08.1v0a.32.32,0,0,1,0,.09.92.92,0,0,0-.09.43.7.7,0,0,0,.09.35c0,.05.05.09.07.14a.09.09,0,0,1,0,.1.15.15,0,0,1-.16.07h-.12a.83.83,0,0,1-.39-.21.7.7,0,0,1-.13-.16,1.46,1.46,0,0,1-.21-.52c0-.07,0-.14-.07-.21a.71.71,0,0,0-.15-.22s0,0,0,0l0,0s-.05,0,0-.08l0,0a.1.1,0,0,1,.1-.06h.11l0,0s0,0,0,0a.42.42,0,0,1,.27.16.69.69,0,0,1,.1.19l0,.06,0,0"/><path class="cls-9" d="M79.84,59h0l-.15-.16a.45.45,0,0,1-.12-.21,1.05,1.05,0,0,1-.06-.24,1.66,1.66,0,0,0-.14-.37l-.1-.14a.43.43,0,0,0-.17-.13.59.59,0,0,0-.32-.09h0a.14.14,0,0,0-.11,0h-.1l-.07,0-.07,0-.14.07a1.14,1.14,0,0,0-.16.15.33.33,0,0,0-.06.1.75.75,0,0,0-.09.3.73.73,0,0,0,.23.64.85.85,0,0,0,.25.17.83.83,0,0,0,.62,0,1.28,1.28,0,0,0,.21-.14l0,0a.63.63,0,0,0,.21.12.95.95,0,0,0,.31,0,.1.1,0,0,0,0-.17m-.8-.49,0,0a.31.31,0,0,1-.17.15h-.07l0,0h0a.31.31,0,0,1-.13,0,.28.28,0,0,1-.14-.12.34.34,0,0,1,0-.22.26.26,0,0,1,0-.08.27.27,0,0,1,.28-.15.26.26,0,0,1,.22.09.28.28,0,0,1,.08.15.2.2,0,0,0,0,.11s0,0,0,0"/><path class="cls-9" d="M82.94,59h0c-.05-.05-.11-.1-.16-.16a.37.37,0,0,1-.12-.2l-.06-.25a1.13,1.13,0,0,0-.14-.36l-.09-.14a.62.62,0,0,0-.18-.14.5.5,0,0,0-.31-.08h0a.14.14,0,0,0-.11,0h-.09l-.08,0-.06,0-.14.07a1.14,1.14,0,0,0-.16.15.61.61,0,0,0-.07.1,1,1,0,0,0-.09.3.74.74,0,0,0,.24.64.53.53,0,0,0,.25.17.81.81,0,0,0,.61,0,.57.57,0,0,0,.21-.13l0,0a.55.55,0,0,0,.21.12l.17,0h.13a.1.1,0,0,0,0-.17m-.8-.49a.1.1,0,0,0,0,.05.29.29,0,0,1-.16.15l-.07,0h-.05a.24.24,0,0,1-.14,0,.35.35,0,0,1-.14-.13.26.26,0,0,1,0-.21.29.29,0,0,1,0-.09.28.28,0,0,1,.28-.15.29.29,0,0,1,.23.09.26.26,0,0,1,.07.15.35.35,0,0,0,0,.11,0,0,0,0,1,0,0"/><path class="cls-9" d="M78,57.79l0-.16a0,0,0,0,0,0,0l-.19,0a1.49,1.49,0,0,0-.3.09,2.69,2.69,0,0,0-.39.25h0l-.21-.2-.14-.12s0,0,0,0l-.12.1s0,0,0,0l0,.05a1.41,1.41,0,0,1,.13.24,1.59,1.59,0,0,1,.07.2s0,0,0,0h0s0,0,0,.05a2.3,2.3,0,0,1,0,.37l0,.27a.49.49,0,0,1,0,.12s0,0,0,0l.26,0h.26l.06,0a.27.27,0,0,0,.09,0,.13.13,0,0,0,.1-.06s0,0,0-.05,0,0,0,0l-.08,0s0,0,0,0a.1.1,0,0,0,0-.09l0,0,0,0h0a.68.68,0,0,1,.16-.6,1.38,1.38,0,0,1,.31-.26h0l.14-.07h0a.05.05,0,0,0,0,0"/><path class="cls-9" d="M76.41,58.23a.28.28,0,0,0,0-.09v0a2.16,2.16,0,0,0-.12-.38c0-.06-.1-.06-.15,0l-.15.07a.17.17,0,0,0-.1.14.86.86,0,0,0,0,.16,2.42,2.42,0,0,1,0,.25.66.66,0,0,1,0,.14.33.33,0,0,1-.23.28.37.37,0,0,1-.29,0s0,0,0,0l-.07-.06a.05.05,0,0,1,0,0,.81.81,0,0,1-.07-.22.77.77,0,0,1,0-.37l0-.12a.1.1,0,0,0-.07-.11l-.1,0-.15,0a.1.1,0,0,0-.11.05l0,0,0,0h0l-.06.19a.28.28,0,0,0,0,.09,1.18,1.18,0,0,0,0,.46.91.91,0,0,0,.38.56l0,0a.11.11,0,0,0,.07,0h0a.55.55,0,0,0,.17,0,.86.86,0,0,0,.28,0l.06,0a.08.08,0,0,1,.07,0,.42.42,0,0,0,.15,0l.15-.1.12-.11,0,0a.12.12,0,0,0,0-.07s0,0,0-.05a.24.24,0,0,0,0-.08v0a.25.25,0,0,1,0-.07.58.58,0,0,0,0-.23.56.56,0,0,0,0-.13"/><path class="cls-9" d="M74.41,57.17a.22.22,0,0,1,0-.14c0-.08.15-.19.14-.33a.26.26,0,0,0-.34-.23.31.31,0,0,0-.25.43c.09.21.48.27.48.27"/><path class="cls-9" d="M74.41,57.31a.6.6,0,0,1-.2,0c-.11,0-.22-.11-.28-.09s-.13.08-.13.29.15.75.14.83a.33.33,0,0,1-.18.34.29.29,0,0,1-.35-.11.58.58,0,0,0-.1-.12.28.28,0,0,0-.34,0,.28.28,0,0,0,0,.34.77.77,0,0,0,.75.41.81.81,0,0,0,.8-.59c.11-.41-.13-.8-.12-1a.81.81,0,0,1,0-.29"/><text class="cls-18" transform="translate(56.26 12.23)">стакан</text><polygon class="cls-8" points="46.06 23.64 42.03 20.19 47.24 21.16 46.06 23.64"/><path class="cls-8" d="M64.13,17.22a19.28,19.28,0,0,1-6.3,3.9,17.53,17.53,0,0,1-12,.71l-.14.45a17.28,17.28,0,0,0,9.5.18,22.43,22.43,0,0,0,2.79-.9A19.46,19.46,0,0,0,65,17Z"/></g></g></g></svg>