<svg id="Capa_1" data-name="Capa 1" xmlns="http://www.w3.org/2000/svg" viewBox="0 0 512 373.03"><defs><style>.cls-1{fill:#0a0a0a;}</style></defs><title>menu-options_black</title><path class="cls-1" d="M21.94,113.37H490.06a21.94,21.94,0,1,0,0-43.89H21.94a21.94,21.94,0,1,0,0,43.89Z" transform="translate(0 -69.49)"/><path class="cls-1" d="M21.94,277.94H490.06a21.94,21.94,0,1,0,0-43.89H21.94a21.94,21.94,0,0,0,0,43.89Z" transform="translate(0 -69.49)"/><path class="cls-1" d="M21.94,442.51H490.06a21.94,21.94,0,1,0,0-43.89H21.94a21.94,21.94,0,1,0,0,43.89Z" transform="translate(0 -69.49)"/></svg>